<svg version="1.1" id="Layer_1" xmlns="http://www.w3.org/2000/svg" xmlns:xlink="http://www.w3.org/1999/xlink" x="0px" y="0px"
	 width="100%" viewBox="0 0 194 176" enable-background="new 0 0 194 176" xml:space="preserve">
<path fill="#FCFCFC" opacity="1.000000" stroke="none" 
	d="
M1.000000,58.000000 
	C1.000000,38.666672 1.000000,19.833342 1.000000,1.000007 
	C64.333313,1.000000 127.666702,1.035288 190.999741,0.903266 
	C194.424377,0.896127 195.105530,1.575015 195.097153,5.000177 
	C194.960190,60.999825 194.960190,117.000008 195.097122,172.999649 
	C195.105499,176.424454 194.424942,177.104141 190.999893,177.096817 
	C129.000198,176.963943 67.000061,176.963989 5.000354,177.096802 
	C1.575872,177.104141 0.887263,176.426300 0.901314,172.999741 
	C1.057815,134.833679 1.000000,96.666718 1.000000,58.000000 
z"/>
<path fill="#585554" opacity="1.000000" stroke="none" 
	d="
M45.583736,147.412689 
	C40.155552,150.711121 38.976887,150.152084 38.958916,144.717224 
	C38.953957,143.217514 38.957893,141.717773 38.955872,140.218048 
	C38.942860,130.556839 38.944153,130.707565 29.219414,130.801971 
	C25.988232,130.833359 25.256897,132.043839 25.393465,134.923523 
	C25.574816,138.747437 25.280516,142.594788 25.482843,146.416580 
	C25.633839,149.268753 24.258459,149.703629 21.869352,149.693314 
	C19.583488,149.683426 18.573919,149.055161 18.635866,146.561905 
	C18.784821,140.566650 18.739418,134.564606 18.662642,128.566711 
	C18.634722,126.385460 19.106958,125.137146 21.676472,125.202492 
	C27.338467,125.346481 33.013012,125.103584 38.669205,125.337891 
	C43.941494,125.556305 45.541882,127.483429 45.597885,132.975769 
	C45.645454,137.641068 45.605778,142.307281 45.583736,147.412689 
z"/>
<path fill="#585554" opacity="1.000000" stroke="none" 
	d="
M106.547195,135.438171 
	C106.890701,137.288437 106.856049,138.792221 107.030487,140.271362 
	C107.174034,141.488419 106.294586,143.143616 107.907021,143.817352 
	C109.421524,144.450134 110.832756,143.572861 112.055595,142.690598 
	C114.337784,141.044006 114.938354,138.684921 114.469238,136.055466 
	C113.967636,133.243973 111.922638,131.744400 109.353767,131.236511 
	C107.259354,130.822433 105.051826,130.899643 102.894951,130.906937 
	C101.021904,130.913269 100.148628,130.192993 100.207809,128.254028 
	C100.257385,126.629547 100.351135,125.243576 102.513634,125.237808 
	C106.679543,125.226700 110.890472,125.031189 114.729881,127.012123 
	C119.257263,129.348007 121.835724,133.067993 121.510101,138.265045 
	C121.184555,143.461090 118.188797,146.797989 113.374130,148.564377 
	C112.753799,148.791962 112.095993,148.928299 111.446609,149.064194 
	C101.291183,151.189499 97.123444,146.568710 100.343208,136.542084 
	C101.380974,133.310410 104.161728,135.110779 106.547195,135.438171 
z"/>
<path fill="#524E4D" opacity="1.000000" stroke="none" 
	d="
M175.233505,149.448242 
	C172.464279,145.886719 174.315628,141.994507 173.772049,138.322296 
	C173.554214,136.850586 173.722794,135.324997 173.558533,133.841309 
	C173.307800,131.576706 171.772476,130.920792 169.690552,130.832428 
	C167.080978,130.721664 167.254761,132.460953 167.257187,134.165329 
	C167.262650,137.996872 167.155563,141.832535 167.302704,145.658508 
	C167.400543,148.203033 167.024231,149.691422 163.877563,149.627777 
	C161.049942,149.570572 160.614838,148.343658 160.666031,145.947830 
	C160.790512,140.119843 160.773575,134.286423 160.678452,128.457382 
	C160.640976,126.160233 161.371918,124.951218 163.813553,125.217232 
	C163.978165,125.235168 164.146515,125.221695 164.313065,125.218567 
	C182.706711,124.873039 180.209137,126.036957 180.247925,140.358276 
	C180.251984,141.857574 180.075668,143.382675 180.289673,144.851105 
	C180.829727,148.556442 179.494873,150.218414 175.233505,149.448242 
z"/>
<path fill="#1294D4" opacity="1.000000" stroke="none" 
	d="
M138.768295,38.155396 
	C138.847519,38.524597 138.739212,38.796310 138.843323,38.899025 
	C141.823532,42.237999 141.167618,46.275585 141.391541,50.508099 
	C141.210602,51.654087 141.102798,52.388939 140.915344,53.487633 
	C137.228943,56.525700 133.219406,55.402611 129.358780,54.887493 
	C127.503738,54.639977 126.999519,52.821777 126.658951,51.106163 
	C125.917259,47.369938 125.419060,43.592892 124.662292,39.415089 
	C124.839043,36.043690 123.290176,33.461121 122.980331,30.195042 
	C123.074394,29.162497 123.269981,28.606674 123.893463,27.770481 
	C126.555679,26.352604 128.903152,26.388083 131.639954,27.647163 
	C132.349182,27.992268 132.676422,28.090929 133.259888,28.177277 
	C137.252533,30.290213 137.643295,34.214294 138.768295,38.155396 
z"/>
<path fill="#1194D4" opacity="1.000000" stroke="none" 
	d="
M43.459862,53.432590 
	C43.448906,51.977272 43.549644,50.912716 43.635674,49.447250 
	C43.552296,48.521603 43.517689,47.994621 43.515717,47.066467 
	C44.484432,39.455307 45.649952,32.324963 52.058815,27.134548 
	C55.281975,26.656105 58.108276,26.081066 61.075676,27.923862 
	C62.440014,32.484806 59.394848,35.971798 59.099838,40.370773 
	C58.478191,42.234779 58.292896,43.768517 58.248749,45.718967 
	C57.088974,48.762001 58.085152,51.827888 56.270443,54.621277 
	C52.769115,55.722649 49.552017,55.249432 45.953613,55.179325 
	C45.294289,55.037491 45.036171,54.955002 44.427494,54.666229 
	C43.908478,54.247746 43.740013,54.035549 43.459862,53.432590 
z"/>
<path fill="#1294D4" opacity="1.000000" stroke="none" 
	d="
M137.089539,75.840256 
	C136.800873,76.051796 136.705048,76.206345 136.749420,76.285706 
	C136.277756,78.600342 135.741531,80.822823 132.902252,81.983261 
	C131.342667,82.358398 130.179092,82.368896 129.017899,82.350380 
	C123.309578,82.259369 122.306175,80.932610 123.930130,75.310890 
	C125.082283,71.322411 125.884232,67.270905 126.554001,62.724045 
	C126.886108,55.116127 127.002258,54.983715 134.286499,55.019543 
	C136.228577,55.029099 138.214081,54.708878 140.467102,55.803585 
	C140.836319,56.107948 140.943390,56.119869 140.959625,56.068516 
	C143.916000,61.150299 140.047607,65.546608 139.178360,70.655106 
	C138.925995,71.015404 138.739029,71.205826 138.796707,71.326149 
	C138.842056,71.847351 138.719681,72.209061 138.284912,72.754120 
	C137.938080,73.270210 137.776703,73.557777 137.702454,74.082680 
	C137.833298,74.813095 137.696106,75.249313 137.089539,75.840256 
z"/>
<path fill="#1093D4" opacity="1.000000" stroke="none" 
	d="
M49.205700,79.131851 
	C49.031910,78.703522 49.015568,78.531555 48.840385,78.154877 
	C48.596729,77.763016 48.511909,77.575867 48.242813,77.141647 
	C48.058540,76.894585 48.022526,76.976425 48.062992,76.957413 
	C44.297039,73.451019 44.921669,68.386841 43.514801,63.657433 
	C43.511692,62.752594 43.520924,62.235859 43.605820,61.337280 
	C43.653107,59.551220 43.636383,58.147209 44.037933,56.051315 
	C47.979881,54.716290 51.519058,54.989525 55.458862,55.348457 
	C58.005543,57.775551 57.194111,60.903072 58.252182,63.896145 
	C58.493641,68.687637 59.572548,72.872902 61.400318,77.275085 
	C61.849987,78.379158 61.936321,79.156067 61.764633,80.339577 
	C61.459877,81.218155 61.159458,81.648163 60.445160,82.238853 
	C59.633854,82.657333 59.128452,82.763878 58.223362,82.756142 
	C55.910843,82.187309 53.893734,82.384285 51.579063,81.945503 
	C51.010773,81.701508 50.800339,81.567642 50.333374,81.161484 
	C50.076843,80.889191 50.043892,80.967888 50.085922,80.960587 
	C49.563675,80.582764 49.531719,79.952118 49.205700,79.131851 
z"/>
<path fill="#5B5857" opacity="1.000000" stroke="none" 
	d="
M154.160416,148.954315 
	C148.254990,149.343597 142.630188,149.431320 136.560379,149.386276 
	C135.936890,148.867188 135.641342,148.676682 135.059006,148.966217 
	C133.162842,145.636490 136.323914,142.884628 136.532410,139.633728 
	C136.835434,134.908752 140.080261,134.332687 143.766403,134.667130 
	C144.434784,132.660294 142.986084,131.302734 142.842590,129.697006 
	C142.710648,128.220642 139.974609,126.178391 143.105484,125.376534 
	C145.282440,124.818985 148.043396,124.397888 149.138443,127.923386 
	C151.107758,134.263672 153.419296,140.497635 155.600464,147.166489 
	C155.364288,148.073959 154.973846,148.439499 154.160416,148.954315 
z"/>
<path fill="#555251" opacity="1.000000" stroke="none" 
	d="
M78.213821,133.741241 
	C78.006569,129.720428 75.062325,131.312576 73.087257,130.906189 
	C71.209564,130.519852 68.496284,131.897202 68.428375,128.208603 
	C68.353310,124.131233 71.321152,125.455284 73.355194,125.360497 
	C76.345398,125.221138 79.371544,125.322456 82.178993,126.536736 
	C86.253410,128.299026 87.465553,132.090347 84.540627,135.358734 
	C82.796394,137.307785 82.840019,138.278229 84.333878,140.195343 
	C85.831444,142.117233 85.018158,144.695084 85.209404,146.989197 
	C85.411896,149.418396 83.936531,149.662582 82.069443,149.644989 
	C80.266685,149.628006 78.611969,149.552811 78.892097,147.061325 
	C79.517197,141.501846 76.884117,139.412262 71.565559,140.110046 
	C69.573708,140.371368 68.488472,139.741302 68.479492,137.434555 
	C68.470375,135.091492 69.617653,134.739807 71.583496,134.716187 
	C73.695366,134.690826 75.914749,135.372025 78.213821,133.741241 
z"/>
<path fill="#ACEDF4" opacity="1.000000" stroke="none" 
	d="
M60.761097,81.243744 
	C60.856892,80.402771 60.776093,79.740593 60.661301,78.745598 
	C60.423416,77.874359 60.532440,77.413719 61.321640,76.894905 
	C66.138229,80.571678 71.127609,80.428635 76.560081,78.415771 
	C77.100494,77.740379 77.455025,77.392456 78.208923,76.950455 
	C85.415390,83.624275 93.945694,79.807281 101.755630,80.402748 
	C103.749847,80.554787 103.969559,77.667892 106.098778,76.919571 
	C107.539764,77.185547 107.885529,78.138199 108.442993,79.348358 
	C110.977020,81.572227 113.792511,80.322868 116.715179,80.711060 
	C117.473282,80.709946 117.902382,80.706718 118.639755,80.653618 
	C119.364532,80.523186 119.736481,80.340652 120.324440,79.867210 
	C121.105347,79.185333 121.676346,78.801788 122.742676,78.887955 
	C123.531250,80.786880 124.445717,81.740311 126.461662,81.556862 
	C128.203857,81.398315 129.985443,81.397903 132.078156,81.882652 
	C133.010696,83.172607 133.019730,84.236641 132.169708,85.627213 
	C131.889542,85.947433 131.490372,86.006287 130.965179,85.958130 
	C127.220009,84.762512 124.071167,85.220482 120.604279,86.343689 
	C119.587166,86.187981 119.005020,85.813499 118.038483,85.501236 
	C113.690796,85.650688 109.281441,83.869385 105.730453,88.030891 
	C104.987694,88.500000 104.506226,88.615913 103.628082,88.523170 
	C103.062515,88.288254 102.864090,88.141006 102.480568,87.679916 
	C102.147285,86.929214 102.027275,86.485031 101.847122,85.746658 
	C95.232330,85.266762 88.719994,85.238663 81.837212,85.687714 
	C80.963844,85.881042 80.459343,85.923241 79.583466,85.894135 
	C75.068489,85.612877 70.816048,83.848320 66.738846,87.058121 
	C66.318573,87.806694 65.952316,88.123421 65.131149,88.399178 
	C61.503609,85.410202 57.349880,85.300735 52.907883,84.736023 
	C51.759842,84.056519 51.399288,83.357025 51.870407,82.059723 
	C53.878693,81.357819 55.647743,81.543106 57.833801,81.707680 
	C58.568211,81.746094 58.889091,81.708725 59.455971,81.787979 
	C60.030880,81.785149 60.329697,81.650963 60.761097,81.243744 
z"/>
<path fill="#9FE4F1" opacity="1.000000" stroke="none" 
	d="
M61.386230,29.163509 
	C58.437477,27.433628 55.583778,28.608589 52.457417,28.117136 
	C51.618938,27.655025 51.468349,27.188589 51.815735,26.331238 
	C52.225128,26.005993 52.395256,25.988132 52.821968,25.971397 
	C53.693264,25.714506 52.841049,25.666487 53.458038,25.691238 
	C61.687424,26.021397 64.746735,19.890221 68.325119,13.846115 
	C69.364754,12.882592 70.402870,12.374546 70.791145,10.894281 
	C71.046539,10.172046 71.248459,9.784719 71.745865,9.208361 
	C72.177147,8.995525 72.354240,8.992926 72.796890,8.982719 
	C73.187553,9.116959 73.312645,9.258806 73.625999,9.188431 
	C74.053238,8.708930 74.292206,8.441650 74.773376,8.051003 
	C75.374741,7.652224 75.782791,7.529900 76.557510,7.594183 
	C77.659332,7.760555 78.436455,7.871798 79.601852,7.915235 
	C80.221100,7.791937 80.452072,7.736445 80.940674,7.926582 
	C80.898758,10.473562 78.929420,11.385626 77.363297,12.497207 
	C73.179260,15.466892 70.267067,19.428068 67.561546,24.191511 
	C72.741104,25.674459 76.942749,24.870766 80.718643,20.980221 
	C81.845520,21.807743 82.021919,22.768728 82.140991,24.122242 
	C82.126572,24.726868 82.102371,24.965794 81.990601,25.549381 
	C81.710091,26.812523 79.926414,27.475847 81.498795,29.041418 
	C80.210068,37.254368 79.968414,45.219078 78.680489,53.466019 
	C78.095772,54.288525 77.614372,54.572746 76.613358,54.704926 
	C75.920624,54.629475 75.653198,54.546726 75.071053,54.192112 
	C74.368652,47.793938 74.320648,41.682732 75.298386,35.591351 
	C76.248993,29.668938 76.040359,29.464525 69.908043,29.422474 
	C68.248749,29.411097 66.589027,29.389601 64.533073,29.465542 
	C63.341122,29.432909 62.538902,29.495527 61.386230,29.163509 
z"/>
<path fill="#1392D1" opacity="1.000000" stroke="none" 
	d="
M81.404694,20.561689 
	C80.874672,21.027912 80.576797,20.958599 80.564781,20.992037 
	C77.723885,28.895885 71.209290,25.447580 65.353584,26.052736 
	C68.565331,18.068745 74.018723,12.811890 80.892555,8.341282 
	C81.495461,7.120720 82.413353,6.969250 83.579681,6.669029 
	C84.410637,6.684783 84.908989,6.717106 85.766075,6.859521 
	C86.469971,7.573802 86.350761,8.190732 86.076004,9.106672 
	C85.680191,10.170691 85.352516,10.925580 85.020699,12.003967 
	C84.857597,12.484233 84.785881,12.673669 84.588394,13.138292 
	C84.000595,14.294974 83.527176,15.170897 83.037605,16.370735 
	C82.846100,16.830681 82.768188,17.014374 82.580528,17.476646 
	C82.190819,18.514158 82.015343,19.304651 81.404694,20.561689 
z"/>
<path fill="#1291D0" opacity="1.000000" stroke="none" 
	d="
M101.739502,6.883281 
	C102.031128,7.166814 102.188530,7.287446 102.278961,7.246769 
	C103.558502,7.203434 104.513634,8.011171 105.975914,8.305244 
	C110.295815,11.995825 114.221626,15.612855 117.597107,20.257603 
	C118.729553,22.034441 119.754112,23.480463 119.397369,25.734047 
	C119.054169,26.269695 118.855484,26.442593 118.296249,26.785160 
	C115.017891,27.629322 112.057404,27.249603 108.708023,27.288124 
	C107.758499,27.201302 107.231529,27.073423 106.359085,26.693085 
	C104.895088,25.625700 104.395287,24.394188 103.917236,22.720585 
	C103.180046,17.003191 100.396797,12.561900 97.824387,7.650245 
	C98.835800,5.881502 100.119408,6.118072 101.739502,6.883281 
z"/>
<path fill="#565353" opacity="1.000000" stroke="none" 
	d="
M50.751282,135.865173 
	C55.004829,133.653656 59.800934,135.133179 64.482407,134.880722 
	C66.079575,134.794601 66.031143,136.251038 66.070518,137.425568 
	C66.119980,138.900955 65.830681,140.079529 63.994659,140.079453 
	C62.337448,140.079407 60.680225,140.100510 59.023026,140.113861 
	C57.679665,140.124680 56.803814,140.606903 56.832653,142.140182 
	C56.862122,143.706940 57.840313,144.038483 59.132866,144.034836 
	C59.961491,144.032486 60.801243,144.132889 61.616894,144.032303 
	C65.353699,143.571381 66.968925,144.929169 65.419739,148.937286 
	C64.862030,148.750381 64.592461,148.621002 64.072510,148.975525 
	C60.279114,149.286026 56.625500,149.370682 52.531967,149.330322 
	C51.790707,148.798935 51.465061,148.413071 50.787369,147.857452 
	C49.685844,144.507996 50.231274,141.305038 50.275826,137.706421 
	C50.937881,137.010300 51.742523,136.868637 50.751282,135.865173 
z"/>
<path fill="#1192D2" opacity="1.000000" stroke="none" 
	d="
M80.083160,101.833839 
	C79.774033,101.390205 79.618698,101.260948 79.170715,101.210693 
	C78.853638,101.546562 78.829193,101.803436 78.424606,102.133575 
	C75.486702,98.540787 71.391747,96.300003 69.035179,92.424507 
	C68.177628,91.014229 67.039391,89.780098 67.018326,87.613556 
	C67.611725,82.779366 71.071716,84.946373 73.329018,84.568016 
	C75.304459,84.236900 77.350639,84.388283 79.095413,86.435287 
	C82.104813,91.543915 83.392578,97.034935 86.422379,102.123894 
	C86.461151,102.748413 86.424667,102.999664 86.149490,103.547630 
	C85.495468,103.863335 85.080162,103.882324 84.353844,103.874931 
	C83.383614,103.958488 82.834251,103.753914 82.323746,102.965919 
	C82.264580,102.663132 82.181717,102.684319 82.208748,102.717453 
	C81.561256,102.577141 80.857925,102.499290 80.083160,101.833839 
z"/>
<path fill="#4A4745" opacity="1.000000" stroke="none" 
	d="
M124.427780,132.185120 
	C124.446411,130.390305 124.469604,129.067093 124.484062,127.743782 
	C124.510033,125.365456 126.126884,125.336555 127.898148,125.291237 
	C129.862091,125.240990 131.031662,125.735397 131.007446,128.008301 
	C130.942245,134.129669 130.900818,140.254318 131.039978,146.373337 
	C131.095535,148.816910 130.136581,149.451248 127.846298,149.506714 
	C125.232948,149.569992 124.371864,148.626282 124.453293,146.057175 
	C124.594711,141.595093 124.451981,137.123978 124.427780,132.185120 
z"/>
<path fill="#504D4C" opacity="1.000000" stroke="none" 
	d="
M91.066086,149.507996 
	C88.351181,149.251938 88.847046,147.494705 88.839294,146.095749 
	C88.807159,140.295425 88.910469,134.493042 88.787506,128.695160 
	C88.734756,126.208046 89.437943,125.160461 92.133759,125.147438 
	C94.962311,125.133781 95.399803,126.448318 95.355515,128.806595 
	C95.252823,134.273682 95.285866,139.744461 95.341927,145.212936 
	C95.369392,147.892288 94.703270,149.800598 91.066086,149.507996 
z"/>
<path fill="#E8E8E7" opacity="1.000000" stroke="none" 
	d="
M41.867920,158.902039 
	C41.924114,159.978531 41.667194,160.745773 40.319988,160.964050 
	C38.674530,161.933578 39.410461,163.260010 39.197754,164.709015 
	C35.903042,165.068237 34.836681,170.218964 30.244482,167.895935 
	C27.599983,166.558182 26.400059,164.710693 26.155272,162.684387 
	C25.838255,160.060211 27.799788,157.751938 30.162775,156.522903 
	C32.271248,155.426270 34.708698,155.399582 36.626381,157.213623 
	C37.787830,158.312332 38.578148,159.951294 40.941681,158.939697 
	C41.277790,158.918854 41.715843,158.714081 41.867920,158.902039 
z"/>
<path fill="#F2F2F1" opacity="1.000000" stroke="none" 
	d="
M84.436676,167.696579 
	C81.616379,166.709183 79.327393,170.401566 76.409897,168.178131 
	C75.865585,167.800201 75.625427,167.579361 75.196274,167.202484 
	C75.015282,167.037720 74.972176,167.028320 74.966309,167.007050 
	C74.806770,166.819595 74.653099,166.653381 74.249435,166.257370 
	C73.999451,166.027588 73.990196,166.009689 73.980118,166.010010 
	C72.419838,163.776489 72.186241,161.597656 74.606705,159.252747 
	C74.971931,158.991043 75.052002,158.917862 75.103348,158.900391 
	C77.275101,156.699356 79.691513,156.787720 82.598709,157.982452 
	C83.130173,158.007462 83.311905,158.008682 83.766235,158.011642 
	C84.563141,158.397339 84.647942,158.970459 84.871323,159.794739 
	C85.039711,160.033096 84.975159,160.011551 84.981964,159.978210 
	C85.624313,161.219528 86.751488,161.735840 88.039093,162.217987 
	C89.867966,162.902756 91.149635,164.119339 90.225266,166.707153 
	C90.021759,167.040436 90.003281,166.996460 90.023376,167.009415 
	C88.346558,168.170547 86.443153,166.882736 84.436676,167.696579 
z"/>
<path fill="#595657" opacity="1.000000" stroke="none" 
	d="
M29.141743,143.872360 
	C29.143560,141.604187 29.294033,139.776581 29.112013,137.982697 
	C28.833191,135.234772 30.167479,134.684433 32.591770,134.653427 
	C35.137451,134.620865 35.665878,135.810226 35.552017,137.984268 
	C35.440132,140.120514 35.676853,142.281082 35.480915,144.405182 
	C35.286228,146.515686 36.908585,149.573242 32.534161,149.717590 
	C27.872524,149.871429 29.403212,146.654282 29.141743,143.872360 
z"/>
<path fill="#1E94CD" opacity="1.000000" stroke="none" 
	d="
M52.805138,84.304916 
	C57.174110,84.114037 62.091694,81.652763 64.742401,87.741112 
	C67.489204,89.957558 69.584641,92.216568 70.612427,95.679977 
	C70.536392,96.821831 70.187088,97.467278 69.335892,98.228165 
	C66.940506,99.092545 65.760147,97.744331 64.346748,96.127197 
	C64.128677,95.825081 64.006577,95.905151 64.077255,95.886864 
	C62.754398,95.274193 61.423771,94.587822 60.315483,93.069122 
	C60.162216,92.785973 60.103966,92.866318 60.152798,92.875122 
	C59.859081,92.770775 59.572002,92.574188 59.205963,92.072388 
	C59.079422,91.838745 59.065613,91.932877 59.112625,91.925621 
	C58.845703,91.771141 58.569580,91.572418 58.196106,91.098473 
	C58.055199,90.882568 58.036877,90.962830 58.076797,90.952789 
	C57.827541,90.772224 57.568268,90.564392 57.188560,90.118820 
	C57.038208,89.918404 57.011578,89.988335 57.046516,89.974960 
	C56.799915,89.780853 56.550076,89.563660 56.191284,89.104599 
	C56.050632,88.899193 56.023792,88.976395 56.062515,88.963333 
	C55.815811,88.769226 55.559986,88.552765 55.197338,88.090744 
	C55.064842,87.875900 55.042149,87.955498 55.083183,87.950096 
	C54.787411,87.750847 54.510265,87.491760 54.199638,86.901459 
	C54.062477,86.318329 53.889004,86.112297 53.389809,85.959274 
	C52.705334,85.607719 52.500099,85.174835 52.805138,84.304916 
z"/>
<path fill="#AEF0FB" opacity="1.000000" stroke="none" 
	d="
M140.886963,55.732811 
	C138.680130,56.086773 136.487778,56.309071 134.375046,55.995289 
	C129.514786,55.273464 127.143890,56.923908 127.800980,62.487183 
	C127.478981,63.066799 127.259590,63.219959 126.641464,63.354359 
	C126.027901,63.182224 125.813072,63.028851 125.392319,62.540562 
	C125.112892,58.389877 123.404091,56.900276 119.407928,57.238419 
	C116.068764,57.520966 112.561020,57.963707 108.982468,56.256508 
	C108.484329,55.463547 108.443779,54.932880 108.775986,54.032707 
	C112.557999,51.694260 116.452835,52.726955 120.199341,52.557861 
	C123.409889,52.412952 124.716019,51.053307 124.276306,47.884594 
	C123.868675,44.947060 123.122078,42.004681 124.318764,38.663094 
	C124.744362,38.109741 124.965981,37.930573 125.596024,37.877594 
	C126.715103,42.676624 127.497391,47.340233 128.102188,52.026745 
	C128.354034,53.978283 129.626328,53.889286 130.963257,53.889240 
	C133.953308,53.889133 136.943359,53.863613 140.384552,53.849964 
	C140.869659,54.353546 140.903641,54.855614 140.886963,55.732811 
z"/>
<path fill="#1791CC" opacity="1.000000" stroke="none" 
	d="
M129.792191,22.703041 
	C130.462234,23.797171 130.908646,24.637999 131.407501,25.834488 
	C129.373032,27.591394 127.019135,26.761509 124.374176,26.982584 
	C122.797775,26.998762 121.851959,26.510355 120.760834,25.463390 
	C119.566353,23.743561 119.039963,22.067432 117.658104,20.484480 
	C116.564690,17.900562 114.117119,16.742512 113.161270,14.074593 
	C112.973236,12.941989 113.064796,12.195303 113.577667,11.153999 
	C114.856522,10.259939 115.790375,10.333822 116.774460,11.672115 
	C117.003807,11.990507 117.000458,12.000896 117.006035,11.997943 
	C118.219025,13.373326 120.291740,13.259804 121.711014,14.874165 
	C121.905388,15.140349 121.983757,15.043265 121.928482,15.072179 
	C125.215851,16.736427 127.706772,19.263678 129.792191,22.703041 
z"/>
<path fill="#1993CE" opacity="1.000000" stroke="none" 
	d="
M70.149498,13.731085 
	C67.831299,15.228111 67.091438,17.536236 66.278656,19.577215 
	C63.972740,25.367582 59.847527,27.268469 53.523045,25.999569 
	C53.156441,25.576292 53.234333,25.180061 53.375160,24.484447 
	C53.443771,21.464752 55.438175,20.434765 57.800701,19.269993 
	C58.129040,19.101395 58.051720,19.040989 58.058876,19.089523 
	C58.231369,18.827469 58.447781,18.557056 58.945442,18.210133 
	C59.182438,18.098806 59.079967,18.081877 59.088768,18.133057 
	C59.229927,17.848820 59.435280,17.564962 59.945377,17.212805 
	C60.186859,17.099825 60.085155,17.098463 60.116161,17.138775 
	C60.578743,15.086523 62.742580,15.186033 64.269043,13.968224 
	C65.272339,13.360897 66.031891,12.980736 67.160004,12.635791 
	C67.676636,12.486790 67.887299,12.438734 68.423134,12.377895 
	C69.428139,12.468382 69.963005,12.778267 70.149498,13.731085 
z"/>
<path fill="#61605F" opacity="1.000000" stroke="none" 
	d="
M63.635281,125.153801 
	C67.010300,125.474037 66.174530,127.727470 66.030968,129.328720 
	C65.867058,131.156845 64.168045,130.833359 62.901897,130.848587 
	C59.770000,130.886292 56.636730,130.824356 53.505230,130.876205 
	C51.533916,130.908859 49.984165,130.830521 49.930439,128.116318 
	C49.870590,125.092674 51.652363,125.087540 53.780045,125.124161 
	C56.911503,125.178070 60.044510,125.141884 63.635281,125.153801 
z"/>
<path fill="#F2F2F1" opacity="1.000000" stroke="none" 
	d="
M112.310516,167.211212 
	C111.101265,166.715668 110.244247,166.440735 109.069702,166.035446 
	C108.507210,165.466202 108.447060,165.000153 108.788345,164.236633 
	C109.029388,163.962738 109.019112,164.026581 108.986786,164.026047 
	C110.540421,162.781128 109.591164,160.692001 110.803032,158.947113 
	C114.620285,156.052322 117.547478,157.543304 120.520721,160.450287 
	C121.024773,161.616074 121.044518,162.441559 120.735954,163.675491 
	C118.499390,166.483688 116.111961,168.211975 112.310516,167.211212 
z"/>
<path fill="#9FE4F1" opacity="1.000000" stroke="none" 
	d="
M70.262039,96.000992 
	C68.536827,93.347382 66.868210,90.995354 65.099319,88.321907 
	C65.286507,87.768036 65.573967,87.535583 65.983856,87.049713 
	C66.917549,86.642754 67.370331,87.089088 67.775116,88.079918 
	C69.986320,93.812012 75.246811,96.471764 78.468262,101.068832 
	C78.120155,102.125481 77.664131,102.482857 76.451668,102.281281 
	C75.205315,101.803009 74.416878,101.502754 73.327820,101.095505 
	C72.882912,100.848343 72.738625,100.708176 72.453697,100.300842 
	C71.852814,98.680618 70.561958,97.771568 70.262039,96.000992 
z"/>
<path fill="#868686" opacity="1.000000" stroke="none" 
	d="
M65.534279,156.816254 
	C67.936501,157.041245 70.379074,156.041183 72.170776,158.514847 
	C73.317169,160.971130 73.088493,163.099335 72.454247,165.655792 
	C71.821304,168.246231 70.899559,168.613754 70.280762,166.300156 
	C69.823006,164.588654 70.238091,162.658951 70.115631,160.836441 
	C70.048470,159.836868 70.599800,158.245590 68.672882,158.339096 
	C67.092270,158.415787 67.085777,159.680908 66.948021,160.873154 
	C66.691063,163.097031 67.611450,165.460861 65.935303,168.172379 
	C64.213066,165.256180 65.311180,162.459671 64.819824,159.474701 
	C64.488571,158.263092 64.757683,157.616959 65.534279,156.816254 
z"/>
<path fill="#F3FCFC" opacity="1.000000" stroke="none" 
	d="
M51.694771,26.051262 
	C52.046867,26.471264 52.038731,26.918674 52.029427,27.702007 
	C47.211178,33.145615 45.590412,39.654087 43.973259,46.586044 
	C43.744595,47.144222 43.609192,47.321381 43.240952,47.258423 
	C42.971233,40.124165 44.372540,33.653839 48.624557,28.030140 
	C49.322842,27.106592 50.111897,26.285383 51.694771,26.051262 
z"/>
<path fill="#F3FCFC" opacity="1.000000" stroke="none" 
	d="
M129.920700,87.119354 
	C129.245178,91.700424 121.832222,98.211021 116.213440,98.773895 
	C115.470627,98.059715 115.461334,97.595627 115.769302,96.830200 
	C120.579117,93.917877 124.488228,90.372284 128.811157,86.829361 
	C129.375549,86.744720 129.606949,86.762894 129.920700,87.119354 
z"/>
<path fill="#9FE4F1" opacity="1.000000" stroke="none" 
	d="
M102.732330,88.083054 
	C103.460365,87.998070 103.881531,88.000168 104.618546,87.996712 
	C106.533340,91.443794 104.091095,94.132645 103.166641,97.091805 
	C102.695038,98.601387 101.245041,99.744759 101.489433,101.859024 
	C101.600082,102.643616 101.550179,103.085442 101.129959,103.726288 
	C100.141830,103.981293 99.414673,104.023567 98.323563,104.079941 
	C97.565559,104.042480 97.174438,103.974319 96.520874,103.754532 
	C96.110291,103.489395 95.965561,103.356636 95.715775,102.666702 
	C95.678085,101.933441 95.745468,101.757355 96.119499,101.125526 
	C96.635101,100.380325 96.833130,100.083588 97.138786,99.541649 
	C97.337601,99.144569 97.417389,98.985085 97.618805,98.586197 
	C97.899132,98.020035 98.053040,97.691025 98.310623,97.092979 
	C98.499725,96.642075 98.580551,96.458046 98.790878,95.990501 
	C99.403725,94.707054 99.719780,93.654037 99.986877,92.239441 
	C100.118889,91.706017 100.181816,91.496712 100.368347,90.986694 
	C100.990959,89.735558 101.494667,88.788727 102.732330,88.083054 
z"/>
<path fill="#E2E0DF" opacity="1.000000" stroke="none" 
	d="
M51.912178,165.750610 
	C51.479126,166.026138 50.989250,166.058716 50.989250,166.058716 
	C50.989250,166.058716 50.501442,166.003204 50.256027,166.003143 
	C46.533730,166.626938 42.560383,169.445160 40.654938,163.477005 
	C43.913799,161.155319 47.348915,162.157516 51.065094,161.972427 
	C53.071541,162.820633 52.898586,164.101028 51.912178,165.750610 
z"/>
<path fill="#ACE7F4" opacity="1.000000" stroke="none" 
	d="
M113.784645,13.795179 
	C115.298134,15.755290 116.632629,17.458931 118.078262,19.469212 
	C118.402763,20.340763 118.255180,20.786043 117.353531,21.070362 
	C113.821083,16.976206 110.445953,13.153428 106.121857,9.830889 
	C105.546234,9.046278 105.422256,8.462882 105.868652,7.450093 
	C106.556747,7.079630 106.958076,7.078339 107.660400,7.074118 
	C108.971931,7.436609 109.534889,8.381675 110.604584,9.174929 
	C111.855820,10.708274 112.955017,11.972339 113.784645,13.795179 
z"/>
<path fill="#F3FCFC" opacity="1.000000" stroke="none" 
	d="
M101.305710,103.959816 
	C100.904579,103.535851 100.940178,103.132698 101.005600,102.426987 
	C101.775833,100.593185 103.222290,100.227325 105.044685,99.856049 
	C107.804001,99.643913 110.236473,99.628204 112.838181,98.589828 
	C113.793602,98.205360 114.459137,98.167229 115.425598,98.523193 
	C115.716263,98.702477 115.886971,98.880363 115.973061,98.969696 
	C115.553955,101.656776 113.978325,103.170311 111.335838,102.945625 
	C108.040077,102.665398 104.950722,103.765564 101.305710,103.959816 
z"/>
<path fill="#EDEDED" opacity="1.000000" stroke="none" 
	d="
M65.578903,156.405045 
	C65.548172,157.207901 65.261017,157.805328 64.853577,158.719742 
	C62.158916,159.159195 59.590019,157.716629 56.653236,159.016510 
	C53.992172,159.593048 55.841125,162.382996 53.701103,163.278564 
	C53.143375,163.219482 52.932426,163.107025 52.623039,162.642990 
	C52.524113,160.777374 52.470478,159.262787 52.734520,157.401978 
	C56.934734,155.253525 61.180065,156.474716 65.578903,156.405045 
z"/>
<path fill="#EDEDED" opacity="1.000000" stroke="none" 
	d="
M172.075104,160.059723 
	C172.433716,159.980362 172.454788,159.978683 172.464752,159.982117 
	C173.218109,159.894073 173.906342,160.014877 174.769470,160.747055 
	C175.041916,160.983109 174.991989,160.999481 174.994522,160.973328 
	C175.656296,161.797882 176.605057,162.213058 177.799011,162.818695 
	C178.052795,162.996277 177.994934,163.006882 177.994583,162.977478 
	C178.783554,163.590393 179.694412,164.161011 179.233734,165.731445 
	C179.018433,166.049088 178.997681,165.998672 179.024872,166.000717 
	C178.788513,166.202179 178.545425,166.424011 178.166473,166.859604 
	C178.010132,167.050949 177.998459,166.999435 178.022781,167.009735 
	C176.693283,167.898499 175.158646,167.275848 173.424805,167.744568 
	C172.878189,167.929230 172.637619,167.909302 172.038940,167.835648 
	C171.413010,167.377136 171.215439,166.939941 171.012665,166.117661 
	C170.454788,163.784164 170.733093,161.913376 172.075104,160.059723 
z"/>
<path fill="#787877" opacity="1.000000" stroke="none" 
	d="
M40.569862,162.933975 
	C42.551826,168.859238 46.536922,165.447464 49.866173,165.647751 
	C45.767822,169.367035 43.491985,169.227158 39.319645,165.172546 
	C38.574902,163.605331 36.526669,162.135315 39.642712,160.973892 
	C40.110249,161.587143 40.215397,162.175171 40.569862,162.933975 
z"/>
<path fill="#868686" opacity="1.000000" stroke="none" 
	d="
M21.061163,168.077957 
	C17.645432,164.569000 19.721592,160.933685 19.984854,157.289978 
	C22.577459,160.359772 18.118931,166.874207 26.294405,166.816254 
	C24.350573,168.525238 22.842394,167.948502 21.061163,168.077957 
z"/>
<path fill="#787877" opacity="1.000000" stroke="none" 
	d="
M108.726471,163.797821 
	C108.969292,164.393036 108.909195,164.823318 108.800629,165.579361 
	C106.616798,168.842773 104.009285,168.634109 101.112991,167.468674 
	C101.398369,165.768417 102.257690,166.049316 103.005653,166.349976 
	C104.426971,166.921326 105.907333,166.772629 106.431793,165.412659 
	C107.147758,163.556137 105.203613,163.536911 104.119659,162.985687 
	C103.394936,162.617126 102.413994,162.344284 102.078934,161.735977 
	C101.763802,161.163864 102.145363,160.208008 102.220413,159.420975 
	C102.592903,159.866669 102.877007,160.498718 103.353668,160.724792 
	C105.123642,161.564285 107.220619,161.803787 108.726471,163.797821 
z"/>
<path fill="#868686" opacity="1.000000" stroke="none" 
	d="
M143.875290,162.163864 
	C143.597061,164.243179 144.561813,166.137512 142.690552,167.913300 
	C140.690002,164.582306 143.064972,160.701004 140.902481,157.628738 
	C140.215027,156.652054 141.570786,156.489410 142.338776,156.500839 
	C143.258026,156.514481 144.445145,156.275681 144.297134,157.854645 
	C144.175507,159.152405 144.016998,160.446716 143.875290,162.163864 
z"/>
<path fill="#F3FCFC" opacity="1.000000" stroke="none" 
	d="
M101.859039,6.807481 
	C100.796356,7.209126 99.561577,7.251437 98.193665,7.641252 
	C97.894264,8.134742 97.728004,8.280730 96.903397,8.476891 
	C96.034500,8.448760 95.823959,8.370457 95.319550,8.129805 
	C93.374313,6.929889 91.609001,7.174332 89.495338,7.577680 
	C88.921371,7.665699 88.687988,7.682232 88.105942,7.645145 
	C87.548103,7.482829 87.338936,7.374133 87.059433,6.918916 
	C87.245224,5.110878 88.124840,3.945121 89.568253,4.113587 
	C93.655373,4.590611 97.960587,4.076838 101.859039,6.807481 
z"/>
<path fill="#6C6B6C" opacity="1.000000" stroke="none" 
	d="
M153.307495,167.073090 
	C149.382126,165.606293 145.875778,163.594116 147.495453,158.001312 
	C147.875366,157.626175 148.094025,157.632797 148.570251,157.842773 
	C152.179123,159.377075 151.542404,162.842896 152.951111,165.654541 
	C153.264633,166.220154 153.355576,166.464127 153.307495,167.073090 
z"/>
<path fill="#F3FCFC" opacity="1.000000" stroke="none" 
	d="
M139.259735,70.849030 
	C139.517975,66.290985 141.343704,61.749226 140.996643,56.453011 
	C143.276199,56.339809 144.504562,58.473652 143.663452,59.837891 
	C141.559219,63.250839 142.200653,67.570084 139.259735,70.849030 
z"/>
<path fill="#8B8989" opacity="1.000000" stroke="none" 
	d="
M121.551697,159.365692 
	C122.045647,157.969559 122.042709,156.265213 123.621300,157.906021 
	C124.058151,158.360077 123.950401,159.478271 123.867294,160.268036 
	C123.518051,163.587082 123.750397,166.528015 128.106140,167.515381 
	C125.907516,166.746597 124.095573,168.421753 121.977661,167.308868 
	C120.706940,164.653885 120.843414,162.224930 121.551697,159.365692 
z"/>
<path fill="#F3FCFC" opacity="1.000000" stroke="none" 
	d="
M43.700794,62.768764 
	C44.730370,67.594528 46.328281,71.912720 48.082512,76.563232 
	C45.817230,76.848160 44.440067,75.562416 44.106525,73.418915 
	C43.611595,70.238235 43.359409,67.019791 43.012672,63.386200 
	C43.182270,62.804459 43.343090,62.653942 43.700794,62.768764 
z"/>
<path fill="#C8C7C6" opacity="1.000000" stroke="none" 
	d="
M159.291901,166.744324 
	C158.969559,166.879257 158.505066,166.890793 158.281708,166.933975 
	C158.009354,165.548965 158.984375,164.602173 159.822937,163.231918 
	C160.109390,162.793701 160.254318,162.648254 160.179565,162.286942 
	C158.876526,161.188400 160.034729,158.703232 157.331818,158.871902 
	C156.646027,158.605408 156.488068,158.158936 156.821899,157.332611 
	C158.492554,156.928055 159.833710,157.065125 160.930313,158.660889 
	C161.457428,159.308395 161.868149,159.578339 162.605499,160.029037 
	C163.817535,161.644821 163.450348,163.159470 163.072037,164.863892 
	C162.382996,165.066071 161.997375,165.045868 161.323334,165.051483 
	C160.555969,165.583008 160.175140,166.179672 159.291901,166.744324 
z"/>
<path fill="#6C6B6C" opacity="1.000000" stroke="none" 
	d="
M132.365356,166.359985 
	C135.378540,167.422119 136.844849,166.074554 136.830078,162.552628 
	C136.822861,160.834061 136.314255,159.008072 137.361252,157.309006 
	C140.149750,163.967743 138.794632,166.615768 132.365356,166.359985 
z"/>
<path fill="#EDEDED" opacity="1.000000" stroke="none" 
	d="
M61.548443,164.640579 
	C61.038765,171.118408 56.548775,167.619690 53.130325,167.896271 
	C52.480072,167.174896 52.514256,166.427338 52.640770,165.323715 
	C54.975121,163.092300 57.446613,165.100739 60.123997,164.494049 
	C60.728371,164.462204 60.971313,164.477798 61.548443,164.640579 
z"/>
<path fill="#F3FCFC" opacity="1.000000" stroke="none" 
	d="
M95.615005,102.819717 
	C96.507660,103.174828 97.070038,103.375740 97.796013,103.835342 
	C94.189041,106.992340 90.296104,105.886536 86.151886,104.145935 
	C85.910782,103.844345 85.921806,103.392563 85.952713,103.168732 
	C86.557327,102.388313 87.261871,102.159149 88.416618,102.141754 
	C90.912262,102.880280 93.118767,102.511673 95.615005,102.819717 
z"/>
<path fill="#F3FCFC" opacity="1.000000" stroke="none" 
	d="
M132.259338,85.929276 
	C131.953751,84.945557 132.017944,83.943680 132.130524,82.567657 
	C132.228897,81.946602 132.278915,81.699677 132.706741,81.461899 
	C134.133316,79.920990 135.182083,78.370934 136.512314,76.592964 
	C137.254395,80.353661 136.239731,83.698647 132.259338,85.929276 
z"/>
<path fill="#868686" opacity="1.000000" stroke="none" 
	d="
M174.967453,160.567200 
	C174.215057,162.005203 173.540604,161.535065 172.685822,160.374786 
	C173.763519,155.465378 176.381622,155.934143 180.221756,157.283829 
	C178.333557,159.694351 175.222672,156.790070 174.967453,160.567200 
z"/>
<path fill="#F3FCFC" opacity="1.000000" stroke="none" 
	d="
M138.890472,38.071968 
	C137.163910,35.295376 135.480301,32.066154 133.656403,28.500950 
	C139.433563,28.960453 138.629868,33.607109 138.890472,38.071968 
z"/>
<path fill="#8B8989" opacity="1.000000" stroke="none" 
	d="
M120.518257,160.702225 
	C117.578575,158.508270 114.772530,157.631821 111.312233,158.605759 
	C114.341736,154.870331 117.217758,155.872726 120.216423,159.197693 
	C121.942642,159.627853 121.362404,160.300461 120.518257,160.702225 
z"/>
<path fill="#F3FCFC" opacity="1.000000" stroke="none" 
	d="
M130.011093,22.592297 
	C127.393303,20.540222 124.770775,18.124107 122.010727,15.404543 
	C126.477554,15.316275 128.625458,18.334642 130.011093,22.592297 
z"/>
<path fill="#F3FCFC" opacity="1.000000" stroke="none" 
	d="
M141.542389,50.594635 
	C140.523346,47.212971 139.728287,43.506706 138.940338,39.401093 
	C141.524734,39.165817 142.072586,40.860458 141.998093,43.034630 
	C141.915451,45.446247 141.843170,47.858215 141.542389,50.594635 
z"/>
<path fill="#F3FCFC" opacity="1.000000" stroke="none" 
	d="
M110.232483,10.077644 
	C109.335999,9.086374 108.692986,8.373743 108.005684,7.366150 
	C111.218147,7.914188 114.961487,7.700072 116.993950,11.607395 
	C116.219315,11.696548 115.434822,11.402590 114.333832,11.115280 
	C112.644417,11.769724 111.632317,10.753361 110.232483,10.077644 
z"/>
<path fill="#6C6B6C" opacity="1.000000" stroke="none" 
	d="
M172.262527,159.639374 
	C171.285416,161.582901 171.820404,163.430695 171.655380,165.501892 
	C171.376312,166.265976 170.985123,166.470901 170.163635,166.303955 
	C169.427475,165.790848 169.007446,165.446152 168.447693,164.859268 
	C168.308029,164.325668 168.308090,164.034256 168.743210,163.785370 
	C170.723022,162.329163 169.655075,160.403107 170.020584,158.712769 
	C170.141464,158.153748 169.921982,157.208145 170.915039,157.368073 
	C171.910110,157.528320 171.776657,158.598999 172.262527,159.639374 
z"/>
<path fill="#727272" opacity="1.000000" stroke="none" 
	d="
M61.792057,164.473343 
	C61.882629,164.787766 61.516277,164.816360 61.333588,164.796814 
	C58.709572,164.850830 56.329212,164.706314 54.695847,162.604034 
	C53.690975,160.644363 53.219624,159.175018 56.106598,158.754349 
	C56.373535,162.549698 60.787998,161.511459 61.792057,164.473343 
z"/>
<path fill="#8B8989" opacity="1.000000" stroke="none" 
	d="
M42.366516,158.993774 
	C42.020000,159.089996 41.669926,158.907944 41.473858,158.913391 
	C43.581490,155.482513 45.112160,155.346237 48.847229,158.418732 
	C46.774582,159.401169 44.545059,157.290939 42.366516,158.993774 
z"/>
<path fill="#F3FCFC" opacity="1.000000" stroke="none" 
	d="
M71.800331,8.752518 
	C71.987053,9.406954 71.974060,9.815784 71.973671,10.531219 
	C71.206619,12.252921 69.630814,12.031806 68.084579,12.584047 
	C67.744308,12.597343 67.816673,12.958878 67.764664,12.781926 
	C67.592522,13.623530 66.793625,13.417447 65.537361,13.204208 
	C66.388504,10.301396 68.418144,8.535778 71.800331,8.752518 
z"/>
<path fill="#B2F8FF" opacity="1.000000" stroke="none" 
	d="
M122.883820,26.749838 
	C125.554176,26.349815 128.029510,26.270159 130.982391,26.190327 
	C131.656509,26.597609 131.853073,27.005062 132.035797,27.653065 
	C129.694687,27.980461 127.367401,28.067312 124.605736,28.128792 
	C123.183342,28.467594 122.849945,27.892481 122.883820,26.749838 
z"/>
<path fill="#F3FCFC" opacity="1.000000" stroke="none" 
	d="
M57.714966,19.066925 
	C56.743172,20.690027 55.357304,22.278660 53.704765,24.026176 
	C51.979038,20.250965 52.657139,19.346441 57.714966,19.066925 
z"/>
<path fill="#787877" opacity="1.000000" stroke="none" 
	d="
M85.190544,159.681183 
	C84.076591,160.062469 84.017113,159.396835 84.023605,158.352783 
	C86.154633,156.388168 88.300385,155.486588 90.897522,157.909103 
	C89.143723,159.301376 87.063377,158.724014 85.190544,159.681183 
z"/>
<path fill="#727272" opacity="1.000000" stroke="none" 
	d="
M90.349686,166.993515 
	C90.546661,162.982697 85.618149,163.508179 84.833282,160.313370 
	C86.574791,160.670593 88.228340,161.279846 89.730316,162.150558 
	C91.757294,163.325577 92.180206,164.988678 90.349686,166.993515 
z"/>
<path fill="#5B5857" opacity="1.000000" stroke="none" 
	d="
M162.816391,165.480896 
	C162.782959,163.681900 162.797302,162.277557 162.495804,160.709808 
	C161.977798,160.240524 161.775635,159.934616 162.109650,159.506210 
	C162.840561,158.773270 162.949295,157.689758 163.245178,157.635971 
	C164.399887,157.426117 165.449905,158.748825 165.204620,159.258972 
	C164.057663,161.644409 164.566605,164.273010 163.766586,166.663452 
	C163.752869,166.704453 163.383270,166.715683 163.308762,166.629395 
	C163.121170,166.412109 163.007477,166.131027 162.816391,165.480896 
z"/>
<path fill="#8B8989" opacity="1.000000" stroke="none" 
	d="
M82.720963,157.744324 
	C80.741493,159.584656 78.062408,157.243530 75.507370,158.871506 
	C76.915016,154.821747 79.699944,156.129547 82.720963,157.744324 
z"/>
<path fill="#E2E0DF" opacity="1.000000" stroke="none" 
	d="
M72.536339,166.052368 
	C72.200378,163.984283 72.150734,161.897537 72.175781,159.368713 
	C72.930878,158.940094 73.611298,158.953552 74.631821,158.979034 
	C73.815536,160.930130 73.962692,163.070831 73.991104,165.603378 
	C73.587578,166.018127 73.205116,166.025925 72.536339,166.052368 
z"/>
<path fill="#727272" opacity="1.000000" stroke="none" 
	d="
M112.091194,167.292450 
	C114.585205,166.552826 117.521744,166.932053 119.631729,164.143265 
	C120.316833,164.453384 120.469269,164.901611 120.257736,165.714050 
	C117.765663,168.148758 115.239365,169.087769 112.091194,167.292450 
z"/>
<path fill="#F3FCFC" opacity="1.000000" stroke="none" 
	d="
M64.118454,96.204750 
	C65.524963,96.531914 66.921242,97.238739 68.650864,98.012108 
	C69.728195,98.020348 70.357162,98.269470 70.915703,99.434875 
	C68.117599,99.990128 65.052910,100.361061 64.118454,96.204750 
z"/>
<path fill="#EDEDED" opacity="1.000000" stroke="none" 
	d="
M153.341156,167.707428 
	C153.140869,167.194321 153.113281,166.950577 153.129700,166.341522 
	C154.623810,165.953674 156.094864,165.810562 157.722015,166.841904 
	C158.058334,166.977158 157.990784,166.977219 158.016327,166.952469 
	C157.182007,170.080643 155.404999,169.274994 153.341156,167.707428 
z"/>
<path fill="#E8E8E7" opacity="1.000000" stroke="none" 
	d="
M120.285294,166.111694 
	C120.057991,165.586349 120.063080,165.152100 120.023521,164.395111 
	C120.016220,163.166077 120.053558,162.259811 120.146835,160.896667 
	C120.511230,160.268494 120.635490,159.994080 120.566925,159.446106 
	C120.757195,159.212479 120.956093,159.149307 121.461258,159.021667 
	C121.811539,161.345459 121.855568,163.733719 121.839035,166.565460 
	C121.358215,166.740219 120.937950,166.471497 120.285294,166.111694 
z"/>
<path fill="#F3FCFC" opacity="1.000000" stroke="none" 
	d="
M65.402031,13.810059 
	C63.793804,14.987814 62.293369,15.986208 60.470047,17.081844 
	C59.379761,13.714209 62.379929,13.968679 64.570572,12.999182 
	C64.933380,12.932535 65.111382,13.103886 65.200722,13.189205 
	C65.290062,13.274524 65.509819,13.630698 65.402031,13.810059 
z"/>
<path fill="#F3FCFC" opacity="1.000000" stroke="none" 
	d="
M121.899445,14.762384 
	C120.174492,14.623498 118.149208,14.664207 117.108055,12.326664 
	C118.992157,12.069733 121.258522,11.560516 121.899445,14.762384 
z"/>
<path fill="#61605F" opacity="1.000000" stroke="none" 
	d="
M131.755310,165.961014 
	C131.931870,166.348419 131.921860,166.461578 131.944336,166.513733 
	C128.958359,167.116089 129.904999,164.696579 129.752853,163.382278 
	C129.531830,161.473007 129.696182,159.519104 130.719360,157.494156 
	C131.005814,160.187302 131.292282,162.880463 131.755310,165.961014 
z"/>
<path fill="#5B5857" opacity="1.000000" stroke="none" 
	d="
M53.391678,164.662094 
	C53.133522,165.704178 53.032944,166.431458 52.864288,167.520432 
	C52.408829,167.460495 52.021454,167.038895 51.556602,166.321716 
	C51.567402,164.937988 51.655674,163.849838 51.613609,162.367752 
	C51.706062,160.423126 51.928848,158.872421 52.524429,157.187927 
	C52.949318,158.762100 53.001411,160.470062 53.137379,162.597168 
	C53.478756,163.423462 53.580681,163.868958 53.391678,164.662094 
z"/>
<path fill="#787877" opacity="1.000000" stroke="none" 
	d="
M110.770584,158.470032 
	C111.037079,158.256592 110.947105,158.420349 110.927689,158.510895 
	C110.132599,160.358139 112.301300,162.702545 109.380981,164.070892 
	C108.774834,162.042877 109.135460,160.216965 110.770584,158.470032 
z"/>
<path fill="#F3FCFC" opacity="1.000000" stroke="none" 
	d="
M52.792244,83.861038 
	C53.071186,84.423340 53.101322,84.848694 53.158279,85.592224 
	C50.467209,85.724335 50.274742,83.672935 50.058517,81.270905 
	C50.076843,80.889191 50.536850,80.980995 50.737785,81.101959 
	C51.183655,81.297012 51.428593,81.371094 51.739677,81.823280 
	C52.051693,82.708946 52.297565,83.216515 52.792244,83.861038 
z"/>
<path fill="#F3FCFC" opacity="1.000000" stroke="none" 
	d="
M82.186356,103.054977 
	C82.788040,102.872627 83.311501,103.082123 83.938904,103.570084 
	C83.750145,104.751945 84.525261,106.533577 82.833641,106.283302 
	C81.497032,106.085571 82.181503,104.467674 82.186356,103.054977 
z"/>
<path fill="#F3FCFC" opacity="1.000000" stroke="none" 
	d="
M60.142437,93.165726 
	C61.397964,93.618813 62.633713,94.451645 64.008698,95.576523 
	C62.227821,96.096344 60.538624,95.923988 60.142437,93.165726 
z"/>
<path fill="#727272" opacity="1.000000" stroke="none" 
	d="
M84.575119,167.954132 
	C84.003769,166.759201 84.268425,165.718536 85.651657,166.281815 
	C87.005005,166.832932 88.215683,166.677872 89.774948,166.696503 
	C88.684425,169.072891 86.721527,167.962723 84.575119,167.954132 
z"/>
<path fill="#94DCEC" opacity="1.000000" stroke="none" 
	d="
M86.769295,6.663564 
	C87.192070,6.722193 87.395042,6.871992 87.943146,7.176942 
	C88.938713,8.943820 88.203720,10.082848 86.672195,11.155716 
	C85.556786,10.955997 85.358063,10.328080 85.170555,9.292894 
	C85.256439,8.483379 85.523643,7.967515 85.957840,7.210631 
	C86.124817,6.969614 86.549484,6.754734 86.769295,6.663564 
z"/>
<path fill="#EDEDED" opacity="1.000000" stroke="none" 
	d="
M156.705902,157.024719 
	C157.043274,157.468979 157.024551,157.896118 157.030823,158.643005 
	C155.833939,158.854141 154.003540,159.453323 153.898010,157.662476 
	C153.835220,156.596771 155.471588,157.156281 156.705902,157.024719 
z"/>
<path fill="#F3FCFC" opacity="1.000000" stroke="none" 
	d="
M83.655861,6.455417 
	C83.173973,7.065382 82.435654,7.478303 81.389679,7.977778 
	C80.901932,8.018888 80.721848,7.973444 80.265945,7.887713 
	C80.360901,5.675026 81.834503,5.868740 83.655861,6.455417 
z"/>
<path fill="#6C6B6C" opacity="1.000000" stroke="none" 
	d="
M179.315582,166.255463 
	C178.686401,165.238022 178.354385,164.426956 178.008301,163.281982 
	C180.976273,162.994263 180.822052,164.485062 179.315582,166.255463 
z"/>
<path fill="#F3FCFC" opacity="1.000000" stroke="none" 
	d="
M105.681992,7.054712 
	C106.093628,7.631977 106.031845,8.183034 105.961792,9.151802 
	C104.911026,8.970654 103.868523,8.371797 102.597702,7.489515 
	C103.315781,7.146896 104.262169,7.087701 105.681992,7.054712 
z"/>
<path fill="#6C6B6C" opacity="1.000000" stroke="none" 
	d="
M178.131836,162.647583 
	C176.631439,163.205231 175.377869,162.980606 174.776093,161.294952 
	C176.068329,161.397751 177.139603,161.848312 178.131836,162.647583 
z"/>
<path fill="#6C6B6C" opacity="1.000000" stroke="none" 
	d="
M173.523407,167.983383 
	C174.111191,166.138016 175.906418,167.195419 177.668518,166.900909 
	C177.157104,169.346924 175.316269,167.747849 173.523407,167.983383 
z"/>
<path fill="#F3FCFC" opacity="1.000000" stroke="none" 
	d="
M76.047440,102.415924 
	C76.522308,102.004280 77.050873,101.905281 77.928574,101.596741 
	C78.277702,101.387207 78.573631,101.293106 78.725853,101.291397 
	C78.578529,102.977669 78.304932,104.715729 76.047440,102.415924 
z"/>
<path fill="#EDEDED" opacity="1.000000" stroke="none" 
	d="
M159.129028,167.094086 
	C159.476639,166.337189 159.983704,165.795120 160.762833,165.165161 
	C160.796219,166.089935 161.002502,167.450790 159.129028,167.094086 
z"/>
<path fill="#9E9D9D" opacity="1.000000" stroke="none" 
	d="
M169.948990,166.392105 
	C170.241348,166.043579 170.635208,165.951614 171.331818,165.841949 
	C171.702820,166.258209 171.771042,166.692184 171.760071,167.454041 
	C170.884583,167.767883 170.301147,167.447647 169.948990,166.392105 
z"/>
<path fill="#F3FCFC" opacity="1.000000" stroke="none" 
	d="
M43.807209,55.981880 
	C42.783386,55.839458 41.936501,55.669258 42.682869,54.187889 
	C43.067059,53.888443 43.247364,53.758575 43.717010,53.794159 
	C44.006351,53.959606 44.016335,53.983284 44.029167,53.982613 
	C44.396381,54.377838 44.532448,54.838261 44.239822,55.674667 
	C44.029392,55.986137 43.861023,56.055271 43.807209,55.981880 
z"/>
<path fill="#6C6B6C" opacity="1.000000" stroke="none" 
	d="
M168.534515,164.429688 
	C167.956116,164.033096 167.604263,163.449097 167.259491,162.589615 
	C167.337067,162.100037 167.407593,161.885956 167.632629,161.972595 
	C168.197403,162.619400 168.607697,162.965454 169.098114,163.569717 
	C169.039200,163.966034 168.900131,164.104156 168.534515,164.429688 
z"/>
<path fill="#ACE7F4" opacity="1.000000" stroke="none" 
	d="
M43.017662,47.294296 
	C43.008121,47.018303 43.443466,46.981079 43.661728,46.974075 
	C43.894875,47.442154 43.909752,47.917244 43.772800,48.719337 
	C43.423046,48.554321 43.225128,48.062305 43.017662,47.294296 
z"/>
<path fill="#F3FCFC" opacity="1.000000" stroke="none" 
	d="
M76.716049,7.489620 
	C76.472565,7.750566 76.062912,7.851821 75.334412,7.940357 
	C75.361359,7.303182 75.819923,6.968212 76.716049,7.489620 
z"/>
<path fill="#F3FCFC" opacity="1.000000" stroke="none" 
	d="
M49.049530,79.195877 
	C49.366257,79.367737 49.684261,79.860001 50.065109,80.652771 
	C49.768906,80.474274 49.409855,79.995270 49.049530,79.195877 
z"/>
<path fill="#F3FCFC" opacity="1.000000" stroke="none" 
	d="
M72.693085,99.913879 
	C72.932114,100.202698 72.987251,100.594788 73.007217,100.791649 
	C72.461418,100.838051 71.895653,100.687592 71.138336,100.308517 
	C70.946793,100.079910 71.001030,100.000351 71.029953,99.961861 
	C71.478462,99.611290 71.945625,99.521698 72.693085,99.913879 
z"/>
<path fill="#F3FCFC" opacity="1.000000" stroke="none" 
	d="
M80.077957,101.861214 
	C80.568733,101.742912 81.208092,101.966362 82.041611,102.470200 
	C81.471992,102.913086 80.771240,102.844284 80.077957,101.861214 
z"/>
<path fill="#ACE7F4" opacity="1.000000" stroke="none" 
	d="
M43.962372,62.681244 
	C43.897678,63.034100 43.458057,63.009327 43.239754,62.982155 
	C43.111332,62.419998 43.201218,61.885014 43.480465,61.152630 
	C43.788906,61.412949 43.907990,61.870667 43.962372,62.681244 
z"/>
<path fill="#F3FCFC" opacity="1.000000" stroke="none" 
	d="
M138.330612,72.790672 
	C138.187637,72.594994 138.275803,72.207336 138.609192,71.633072 
	C138.756836,71.830551 138.659302,72.214622 138.330612,72.790672 
z"/>
<path fill="#8B8989" opacity="1.000000" stroke="none" 
	d="
M148.514816,166.904984 
	C148.860641,167.605927 148.566757,167.845947 147.809143,167.445526 
	C147.852936,167.102524 148.026001,166.977753 148.514816,166.904984 
z"/>
<path fill="#F3FCFC" opacity="1.000000" stroke="none" 
	d="
M48.095284,77.105408 
	C48.399960,76.957321 48.619236,77.155296 48.698952,77.719337 
	C48.419651,77.807106 48.236477,77.595795 48.095284,77.105408 
z"/>
<path fill="#EDEDED" opacity="1.000000" stroke="none" 
	d="
M162.266495,159.250763 
	C162.656830,159.612549 162.667847,159.841415 162.429413,160.308350 
	C161.898270,160.218567 161.616562,159.890717 161.216766,159.261993 
	C161.361481,159.013367 161.624313,159.065613 162.266495,159.250763 
z"/>
<path fill="#E2E0DF" opacity="1.000000" stroke="none" 
	d="
M75.115608,167.276703 
	C75.299797,167.213699 75.584312,167.389679 75.983284,167.797699 
	C75.803810,167.858383 75.509872,167.687027 75.115608,167.276703 
z"/>
<path fill="#F3FCFC" opacity="1.000000" stroke="none" 
	d="
M137.094238,75.851364 
	C136.933594,75.606445 137.066315,75.161087 137.494324,74.517883 
	C137.655594,74.763664 137.521606,75.207298 137.094238,75.851364 
z"/>
<path fill="#C8C7C6" opacity="1.000000" stroke="none" 
	d="
M167.802582,162.010101 
	C167.787125,162.273346 167.528824,162.348907 167.397690,162.331512 
	C167.134308,161.817764 166.924698,161.246185 167.802582,162.010101 
z"/>
<path fill="#6C6B6C" opacity="1.000000" stroke="none" 
	d="
M178.389526,167.191849 
	C178.144333,166.695343 178.278519,166.339737 178.732391,165.993439 
	C179.412674,166.542953 179.317078,166.986023 178.389526,167.191849 
z"/>
<path fill="#6C6B6C" opacity="1.000000" stroke="none" 
	d="
M148.795944,166.571014 
	C148.634888,166.982391 148.439178,167.007812 147.961685,167.130264 
	C147.568817,166.390640 147.480072,165.577118 148.795944,166.571014 
z"/>
<path fill="#EDEDED" opacity="1.000000" stroke="none" 
	d="
M159.969070,162.288055 
	C160.268906,162.224121 160.780518,162.277908 160.142593,162.873383 
	C159.964462,162.939148 159.978256,162.505020 159.969070,162.288055 
z"/>
<path fill="#E2E0DF" opacity="1.000000" stroke="none" 
	d="
M74.075562,166.259399 
	C74.350739,166.059525 74.624146,166.222244 74.890060,166.750793 
	C74.610771,166.951889 74.341179,166.787018 74.075562,166.259399 
z"/>
<path fill="#ACE7F4" opacity="1.000000" stroke="none" 
	d="
M43.902084,53.686935 
	C43.820999,53.987858 43.635651,54.016109 43.168526,54.031334 
	C42.932041,53.773907 42.999901,53.535938 43.219254,53.173122 
	C43.498051,53.165974 43.647930,53.290119 43.902084,53.686935 
z"/>
<path fill="#ACEDF4" opacity="1.000000" stroke="none" 
	d="
M130.988373,86.002182 
	C130.861862,86.406311 130.625397,86.711006 130.196014,87.236679 
	C130.003067,87.457642 129.904785,87.117371 129.925949,86.941551 
	C129.990051,86.539062 130.032990,86.312401 130.365662,85.896576 
	C130.655411,85.707397 130.878418,85.902748 130.988373,86.002182 
z"/>
<path fill="#F3FCFC" opacity="1.000000" stroke="none" 
	d="
M59.920593,17.180044 
	C60.003433,17.410868 59.820011,17.721912 59.367081,18.108597 
	C59.283154,17.876244 59.468739,17.568254 59.920593,17.180044 
z"/>
<path fill="#F3FCFC" opacity="1.000000" stroke="none" 
	d="
M58.919098,18.174603 
	C58.990974,18.401705 58.799511,18.704603 58.337036,19.072781 
	C58.262604,18.842171 58.459183,18.546286 58.919098,18.174603 
z"/>
<path fill="#423F3E" opacity="1.000000" stroke="none" 
	d="
M50.344303,136.130066 
	C50.871262,136.057968 51.589752,136.254227 50.676060,137.143768 
	C50.354973,137.031158 50.301128,136.772629 50.344303,136.130066 
z"/>
<path fill="#423F3E" opacity="1.000000" stroke="none" 
	d="
M50.421059,148.141602 
	C50.877964,147.958786 51.296272,148.250427 51.903313,148.873688 
	C51.522182,149.008881 50.952320,148.812454 50.421059,148.141602 
z"/>
<path fill="#423F3E" opacity="1.000000" stroke="none" 
	d="
M64.216690,149.267624 
	C64.136330,148.878662 64.204285,148.298935 64.923080,148.920502 
	C64.857582,149.179764 64.679115,149.256821 64.216690,149.267624 
z"/>
<path fill="#423F3E" opacity="1.000000" stroke="none" 
	d="
M135.207306,149.306763 
	C135.157333,148.889694 135.283478,148.242569 136.004471,149.044312 
	C135.912613,149.300171 135.709854,149.346817 135.207306,149.306763 
z"/>
<path fill="#423F3E" opacity="1.000000" stroke="none" 
	d="
M154.176392,149.330841 
	C154.218689,148.829727 154.557587,148.403595 155.254791,147.767212 
	C155.613098,147.556946 155.656174,147.631882 155.669220,147.673096 
	C155.561707,147.962753 155.441177,148.211197 155.192322,148.853470 
	C154.866989,149.300140 154.669998,149.352966 154.176392,149.330841 
z"/>
<path fill="#5B5857" opacity="1.000000" stroke="none" 
	d="
M155.369583,149.258514 
	C155.134842,148.979126 155.205704,148.710968 155.479401,148.078552 
	C156.188477,148.235107 156.179428,148.753555 155.369583,149.258514 
z"/>
<path fill="#F3FCFC" opacity="1.000000" stroke="none" 
	d="
M59.170105,92.100708 
	C59.395378,92.011215 59.711334,92.183685 60.114464,92.620041 
	C59.888016,92.710175 59.574402,92.536423 59.170105,92.100708 
z"/>
<path fill="#F3FCFC" opacity="1.000000" stroke="none" 
	d="
M58.152821,91.134430 
	C58.369652,91.051292 58.684101,91.220024 59.079094,91.653557 
	C58.856571,91.741005 58.553509,91.563644 58.152821,91.134430 
z"/>
<path fill="#F3FCFC" opacity="1.000000" stroke="none" 
	d="
M57.137997,90.162094 
	C57.341385,90.089691 57.644562,90.260986 58.032227,90.687515 
	C57.823738,90.763763 57.530762,90.584778 57.137997,90.162094 
z"/>
<path fill="#F3FCFC" opacity="1.000000" stroke="none" 
	d="
M56.141048,89.144897 
	C56.344826,89.081276 56.639019,89.263359 57.007332,89.703514 
	C56.798126,89.771255 56.514797,89.580933 56.141048,89.144897 
z"/>
<path fill="#8B8989" opacity="1.000000" stroke="none" 
	d="
M148.844238,157.782288 
	C148.623001,158.004623 148.418182,157.963120 147.935028,157.770599 
	C148.017975,157.109070 148.409973,156.964294 148.844238,157.782288 
z"/>
<path fill="#F3FCFC" opacity="1.000000" stroke="none" 
	d="
M55.151634,88.126579 
	C55.364113,88.058708 55.663383,88.241508 56.031944,88.687286 
	C55.813637,88.759262 55.526031,88.568260 55.151634,88.126579 
z"/>
<path fill="#F3FCFC" opacity="1.000000" stroke="none" 
	d="
M54.171391,86.919312 
	C54.405834,86.875778 54.696724,87.125313 55.055916,87.659775 
	C54.825420,87.700592 54.526627,87.456490 54.171391,86.919312 
z"/>
<path fill="#F3FCFC" opacity="1.000000" stroke="none" 
	d="
M73.626305,8.977606 
	C73.758118,9.378674 73.659111,9.700220 73.122864,9.142817 
	C73.062454,8.975111 73.438347,8.979002 73.626305,8.977606 
z"/>
<path fill="#99E2F1" opacity="1.000000" stroke="none" 
	d="
M126.007889,37.620056 
	C125.724861,38.016064 125.445290,38.028347 124.746574,38.063675 
	C121.632843,36.357773 121.179604,33.700062 121.471573,30.457027 
	C122.010887,29.729811 122.466484,29.559885 123.326134,29.800362 
	C124.437485,32.410072 125.224411,34.823204 126.007889,37.620056 
z"/>
<path fill="#9FE4F1" opacity="1.000000" stroke="none" 
	d="
M123.718307,29.676199 
	C123.215240,30.004810 122.779930,30.012680 122.017410,30.026840 
	C121.004120,29.957003 120.418884,29.659771 119.677048,28.968159 
	C119.075676,28.154600 118.843887,27.537878 118.894615,26.539021 
	C118.993050,26.221861 118.952744,26.046965 119.020416,25.988029 
	C119.674477,25.328869 119.356674,24.195745 120.631439,23.930105 
	C121.476242,24.702356 122.018883,25.367651 122.820175,26.231211 
	C123.285522,26.898180 123.492218,27.366886 123.935127,27.969505 
	C124.042915,28.520765 123.914490,28.938110 123.718307,29.676199 
z"/>
<path fill="#BDF7FD" opacity="1.000000" stroke="none" 
	d="
M57.392422,65.128578 
	C56.569180,62.337830 55.703964,59.765663 55.922234,56.628109 
	C55.567535,55.721634 55.453217,55.178856 55.760811,54.223885 
	C56.272694,51.476479 56.568100,49.098003 56.944794,46.367615 
	C57.384636,45.676659 57.806347,45.487228 58.643978,45.580521 
	C59.544590,46.172596 59.764240,46.816765 59.822289,47.862675 
	C59.745190,48.612507 59.651466,49.024986 59.447136,49.714478 
	C59.238022,50.544792 59.109257,51.090729 59.107803,51.919670 
	C59.155369,52.357494 59.184566,52.530815 59.280151,52.959755 
	C59.397961,53.384899 59.449387,53.554424 59.567352,53.982925 
	C59.655830,54.419556 59.677765,54.597221 59.688629,55.044079 
	C59.640781,55.489178 59.604008,55.665081 59.482178,56.095238 
	C59.279030,56.690083 59.184372,57.037167 59.088215,57.666557 
	C59.060265,58.326645 59.063152,58.709740 59.094910,59.399788 
	C59.127831,59.918163 59.139442,60.129536 59.160927,60.665833 
	C59.163540,62.129112 59.120388,63.262402 58.508759,64.641891 
	C58.115192,65.060158 57.910156,65.178543 57.392422,65.128578 
z"/>
<path fill="#99E2F1" opacity="1.000000" stroke="none" 
	d="
M60.937714,29.363224 
	C61.588203,28.752182 62.155361,28.505968 63.029610,28.225931 
	C64.974548,32.285240 62.410442,35.650036 61.190186,39.609844 
	C60.431412,40.544991 59.773979,40.951061 58.585884,41.046165 
	C57.649643,36.887989 59.720188,33.418583 60.937714,29.363224 
z"/>
<path fill="#ACE7F4" opacity="1.000000" stroke="none" 
	d="
M55.518631,53.855469 
	C55.966183,54.381275 55.955078,54.907589 55.915634,55.827522 
	C52.237961,56.168697 48.588631,56.116257 44.484344,56.024975 
	C44.015369,55.540421 44.001350,55.094707 44.014668,54.315468 
	C47.714661,53.939953 51.387318,53.897964 55.518631,53.855469 
z"/>
<path fill="#91DCED" opacity="1.000000" stroke="none" 
	d="
M57.911270,41.228455 
	C58.607895,40.718746 59.017670,40.461597 59.644367,40.093880 
	C61.621525,41.977329 60.649597,43.792477 59.120766,45.833412 
	C58.365246,46.050232 57.982819,46.029236 57.313232,46.011971 
	C56.907635,44.462200 56.845474,42.916115 57.911270,41.228455 
z"/>
<path fill="#91DCED" opacity="1.000000" stroke="none" 
	d="
M132.636917,81.379166 
	C132.997238,81.745682 132.819824,81.936615 132.365601,82.118683 
	C129.096832,80.902885 124.649414,84.471985 122.315910,79.255600 
	C120.793739,77.594963 121.660759,76.121971 122.005234,74.305168 
	C123.086891,71.169250 123.424263,68.221718 124.566757,65.126762 
	C125.231110,64.245590 125.878220,63.902229 126.722839,63.233643 
	C126.976089,62.980091 127.336899,62.937607 127.517632,62.925625 
	C127.530609,67.548721 126.700531,72.114937 124.987610,76.371750 
	C123.268646,80.643585 124.760071,81.670097 128.734100,81.244446 
	C129.871246,81.122635 131.036774,81.265686 132.636917,81.379166 
z"/>
<path fill="#91DCED" opacity="1.000000" stroke="none" 
	d="
M57.032646,65.368378 
	C57.385517,64.967072 57.691311,64.973900 58.455811,64.970764 
	C62.547226,68.037300 62.201992,72.325050 62.146084,76.737366 
	C61.573792,77.309723 61.266487,77.588715 60.793243,78.140244 
	C58.317513,74.516525 57.776634,70.110474 57.032646,65.368378 
z"/>
<path fill="#91DCED" opacity="1.000000" stroke="none" 
	d="
M52.263817,82.146889 
	C51.501209,82.104820 51.261101,81.923058 51.012108,81.439514 
	C53.135986,81.309357 55.333248,81.395775 57.892780,81.665939 
	C56.410637,81.930588 54.566223,82.011490 52.263817,82.146889 
z"/>
<path fill="#91DCED" opacity="1.000000" stroke="none" 
	d="
M60.716011,81.167542 
	C60.705326,81.316795 60.472965,81.568649 59.967426,81.829445 
	C59.929806,81.605110 60.196499,81.415688 60.716011,81.167542 
z"/>
<path fill="#D9D9D7" opacity="1.000000" stroke="none" 
	d="
M146.543457,139.433899 
	C146.704285,141.102615 148.776855,142.641342 146.715927,143.639572 
	C145.503357,144.226913 143.053207,144.505829 142.554535,143.275711 
	C141.510269,140.699753 143.245667,138.285599 144.182022,135.863785 
	C145.887146,136.434509 145.826019,137.963501 146.543457,139.433899 
z"/>
<path fill="#0D93D6" opacity="1.000000" stroke="none" 
	d="
M62.024994,77.399841 
	C60.993500,73.200432 60.105911,69.370125 59.066422,65.250320 
	C58.728703,63.660801 58.542889,62.360783 58.292038,60.673195 
	C58.328411,59.946075 58.371830,59.599281 58.277153,58.993553 
	C58.277699,58.418823 58.301239,58.091660 58.227810,57.516762 
	C58.248119,56.934685 58.399117,56.641266 58.825474,56.228935 
	C59.022999,56.071384 59.058689,56.039833 59.056206,56.016144 
	C64.233902,53.463341 69.620079,54.657619 75.395340,55.299034 
	C77.429268,56.844028 77.365891,58.740406 77.359657,60.557671 
	C77.343109,65.384911 77.375534,70.204002 78.145981,75.416832 
	C77.826881,76.690796 77.446060,77.498405 77.698074,78.809303 
	C77.725197,80.255104 77.457443,81.258888 76.170868,81.276024 
	C72.508873,81.324799 68.844299,81.377228 65.184074,81.289459 
	C63.015812,81.237473 62.897888,79.185722 62.024994,77.399841 
z"/>
<path fill="#0292DB" opacity="1.000000" stroke="none" 
	d="
M102.870087,84.881760 
	C103.184578,85.565750 103.131630,85.969559 102.969482,86.659904 
	C101.979759,87.971870 101.506050,89.164490 101.295410,90.817795 
	C101.193848,91.128616 101.145233,90.967316 101.184723,91.041893 
	C99.833809,92.620537 99.948051,94.640076 99.231972,96.754623 
	C99.061302,97.075623 99.016937,97.009552 99.055748,97.018326 
	C98.558243,97.399246 98.495903,98.002220 98.198616,98.818161 
	C98.050613,99.073463 98.011078,99.011505 98.047501,99.016357 
	C97.577927,99.393661 97.495049,99.973694 97.149078,100.730453 
	C96.950569,100.938858 97.001923,100.989769 96.967880,100.977692 
	C96.784248,101.144508 96.634674,101.323387 96.235886,101.747681 
	C95.986664,101.993088 95.999695,101.998604 95.995659,101.991859 
	C94.592857,103.158043 92.907951,102.959229 90.924538,102.950279 
	C90.361465,102.883995 90.140762,102.838112 89.614868,102.659683 
	C89.111748,102.435905 88.913811,102.344673 88.175522,101.919052 
	C87.487518,101.439911 87.339874,101.295135 86.996796,100.917007 
	C86.685516,100.521492 86.569672,100.359352 86.287781,99.954407 
	C85.892395,99.397346 85.654137,99.090034 85.209724,98.573250 
	C84.640106,97.879036 84.430084,97.343407 84.495674,96.447578 
	C85.852234,94.881020 83.849564,95.148285 83.586060,94.236900 
	C83.286819,93.763580 83.183472,93.558716 82.947388,93.026764 
	C82.562065,92.000397 82.326828,91.295280 81.998505,90.190071 
	C81.854836,89.513748 81.815681,89.233673 81.769409,88.518478 
	C81.889099,85.471329 83.187347,84.392082 85.860733,84.477463 
	C91.404335,84.654510 96.955818,84.404358 102.870087,84.881760 
z"/>
<path fill="#2294C9" opacity="1.000000" stroke="none" 
	d="
M107.476181,76.744843 
	C104.311073,82.522285 99.348831,82.101196 94.339233,81.796173 
	C91.389374,81.616554 88.386009,81.487671 85.466858,81.837654 
	C81.647163,82.295601 79.558220,80.883797 78.267654,76.701889 
	C77.865105,70.976723 76.434090,65.772461 76.995056,60.484253 
	C77.182968,58.712807 76.673180,56.772675 78.816406,55.237671 
	C87.415062,54.135952 95.627701,54.690502 104.239944,54.779377 
	C108.306381,56.101158 108.252357,58.957424 107.835281,62.054008 
	C107.569756,64.025345 106.327057,66.258781 109.198456,67.950790 
	C110.683228,70.533371 110.363716,72.981842 109.898956,75.758759 
	C109.683128,76.273140 109.574280,76.461906 109.237068,76.864548 
	C108.498459,77.187561 107.885704,77.504440 107.476181,76.744843 
z"/>
<path fill="#1091D0" opacity="1.000000" stroke="none" 
	d="
M106.256752,100.723862 
	C104.586647,101.324692 103.183929,101.684631 101.408325,102.084503 
	C98.550529,101.913437 99.611954,100.299034 100.267311,99.497444 
	C102.858131,96.328568 103.553047,92.403038 104.920906,88.365097 
	C105.493813,84.421822 107.624619,83.298286 111.081673,83.708412 
	C113.481903,83.993164 115.936462,83.820023 118.841240,83.956024 
	C118.257858,92.031906 112.280014,96.170990 106.256752,100.723862 
z"/>
<path fill="#1791CC" opacity="1.000000" stroke="none" 
	d="
M130.716583,85.311813 
	C130.375458,85.842987 130.162964,86.048347 129.982513,86.544617 
	C126.089691,90.726463 122.074112,94.495277 116.898598,97.353287 
	C115.627815,97.965851 115.108749,97.348503 114.456802,96.341934 
	C114.580627,92.126251 117.709930,89.955284 119.896881,86.870750 
	C123.139465,82.516357 126.818687,82.893745 130.716583,85.311813 
z"/>
<path fill="#91DCED" opacity="1.000000" stroke="none" 
	d="
M120.172394,86.348846 
	C119.371368,89.770592 117.227051,91.995766 115.098022,94.628044 
	C114.248901,96.066254 113.774513,97.321426 113.102264,98.809723 
	C111.186562,100.506386 109.057777,101.140671 106.355850,101.035965 
	C108.971169,96.686432 113.669762,93.931969 116.297554,89.334450 
	C117.187347,87.777672 118.153015,86.264267 119.199867,84.395821 
	C119.579552,84.703270 119.843369,85.345940 120.172394,86.348846 
z"/>
<path fill="#8CD9EA" opacity="1.000000" stroke="none" 
	d="
M82.743332,89.987289 
	C82.869194,90.344757 82.853470,90.660797 82.915207,90.806473 
	C83.474106,91.429665 83.470085,92.103943 83.771088,93.001740 
	C83.878792,93.302711 83.886353,93.650398 83.953873,93.810638 
	C84.420624,94.416763 84.581573,94.984840 84.849731,95.805969 
	C85.077927,96.614174 85.270302,97.132690 85.677956,97.828568 
	C86.207283,98.245682 86.484512,98.522339 86.809509,99.118576 
	C86.894035,99.401329 86.916985,99.693672 86.992912,99.819107 
	C87.247818,100.209557 87.447784,100.457657 87.821625,100.872864 
	C87.974503,101.056900 87.998283,101.001686 87.970306,101.012688 
	C88.208160,101.215012 88.444191,101.437897 88.809258,101.877533 
	C88.968094,102.062737 88.962563,101.995705 88.942993,102.023056 
	C89.048759,102.253754 89.174095,102.457092 89.029572,102.896133 
	C88.066635,103.047966 87.373543,102.964104 86.332039,102.912567 
	C82.846329,98.629684 80.947121,93.747894 79.281616,88.365784 
	C78.333923,87.417534 78.533920,86.540298 78.753967,85.362595 
	C79.380035,85.001396 79.777290,84.992706 80.472244,84.966576 
	C82.687355,85.995621 82.291725,87.955086 82.743332,89.987289 
z"/>
<path fill="#1F8FC2" opacity="1.000000" stroke="none" 
	d="
M82.913078,89.882156 
	C82.270157,88.768097 81.671120,87.191429 80.921013,85.281952 
	C82.970924,82.668587 85.795403,83.753258 88.283409,83.815308 
	C93.344872,83.941559 98.477989,82.855644 103.355171,84.819504 
	C97.965134,85.106316 92.682854,85.227348 87.423859,84.932755 
	C83.936157,84.737373 82.537521,86.020721 82.913078,89.882156 
z"/>
<path fill="#2294C9" opacity="1.000000" stroke="none" 
	d="
M122.452591,74.011391 
	C122.765953,75.479942 122.423935,76.883125 122.056396,78.647476 
	C121.768333,79.495132 121.505783,79.981606 121.104126,80.706902 
	C120.812050,81.124962 120.659081,81.304207 120.167686,81.585464 
	C119.444046,81.704163 119.058830,81.720856 118.384300,81.736572 
	C114.662308,81.156136 111.196487,81.694397 107.373734,81.223785 
	C106.992981,79.935623 106.992973,78.852654 107.018906,77.362122 
	C107.044830,76.954559 107.016602,76.983192 107.002777,76.997406 
	C107.107330,76.865150 107.225693,76.718697 107.590179,76.710846 
	C107.836288,76.849457 107.926384,76.930458 107.971863,76.970474 
	C114.045433,80.140053 116.725754,79.543983 122.452591,74.011391 
z"/>
<path fill="#1F8FC2" opacity="1.000000" stroke="none" 
	d="
M78.723999,84.668884 
	C79.019638,85.769112 79.056503,86.528137 79.100586,87.669563 
	C75.283653,83.906433 70.295998,83.670853 67.902527,87.969032 
	C67.428741,87.994545 67.004044,87.576057 66.342804,86.976929 
	C65.989746,85.579346 64.399811,83.662628 67.295441,83.777245 
	C71.019127,83.924637 74.797638,83.071678 78.723999,84.668884 
z"/>
<path fill="#6CBBD3" opacity="1.000000" stroke="none" 
	d="
M107.262100,81.333168 
	C110.460541,81.120705 113.928101,81.222816 117.745323,81.530266 
	C114.570671,82.074463 111.047485,82.277100 107.262100,81.333168 
z"/>
<path fill="#1F8FC2" opacity="1.000000" stroke="none" 
	d="
M101.458084,90.969131 
	C101.121735,89.702263 100.463127,88.133522 102.511566,87.041885 
	C102.899834,87.119705 102.939400,87.292969 103.009079,87.731110 
	C102.600235,88.933868 102.161278,89.871758 101.458084,90.969131 
z"/>
<path fill="#8CD9EA" opacity="1.000000" stroke="none" 
	d="
M77.925751,78.815788 
	C77.624596,78.654678 77.394249,78.096497 77.209366,77.233719 
	C77.404900,76.796555 77.554970,76.663986 77.935715,76.723801 
	C78.166374,76.916176 78.206902,76.854752 78.241158,76.843147 
	C78.182465,77.360603 78.089516,77.889664 77.925751,78.815788 
z"/>
<path fill="#6CBBD3" opacity="1.000000" stroke="none" 
	d="
M120.085396,81.695633 
	C120.019287,81.439468 120.255501,81.248657 120.751465,81.030380 
	C120.757187,81.198418 120.549355,81.451103 120.085396,81.695633 
z"/>
<path fill="#0A93D8" opacity="1.000000" stroke="none" 
	d="
M78.580704,54.156258 
	C77.956718,45.336266 78.264633,36.918633 80.936333,28.405378 
	C82.989235,26.143103 85.394379,26.645273 87.617020,26.619055 
	C92.337875,26.563368 97.060875,26.522406 102.253723,26.706781 
	C104.991020,27.123764 106.118584,28.597254 106.245178,30.750126 
	C106.406982,33.501774 107.503479,36.109406 107.404785,39.353466 
	C107.319389,42.958858 108.661324,45.947086 108.361389,49.123806 
	C108.188797,50.951832 108.090454,52.751102 106.261551,54.379711 
	C97.492126,55.398357 89.096542,54.848431 80.243286,54.892113 
	C79.485367,54.723888 79.193138,54.611752 78.580704,54.156258 
z"/>
<path fill="#0D93D6" opacity="1.000000" stroke="none" 
	d="
M58.766899,46.445328 
	C59.130360,44.299858 59.513042,42.528492 59.878510,40.370216 
	C60.982719,36.309933 62.104145,32.636555 63.281136,28.577644 
	C67.292900,28.210991 71.249100,28.229172 75.205299,28.249149 
	C76.539833,28.255888 78.179520,28.134930 77.651855,30.199697 
	C75.718040,37.766800 76.340889,45.577435 75.114235,53.585659 
	C69.956543,55.919701 64.893059,54.957752 59.460770,54.245800 
	C59.071293,53.962933 59.050629,53.935062 59.057587,53.919170 
	C58.766247,53.730789 58.520271,53.501102 58.252274,52.975487 
	C58.209808,52.107624 58.234722,51.486103 58.223442,50.555325 
	C58.270309,50.050880 58.353371,49.855698 58.421677,49.342667 
	C58.533325,48.289692 58.659721,47.554562 58.766899,46.445328 
z"/>
<path fill="#0592DA" opacity="1.000000" stroke="none" 
	d="
M85.626450,10.758204 
	C86.684059,9.828428 87.404465,8.874084 88.206566,7.625916 
	C88.288269,7.332092 88.617828,7.179467 88.789764,7.121043 
	C91.190506,7.066825 93.524048,5.411788 95.900391,7.698218 
	C96.178429,7.913331 96.064919,7.900411 96.086914,7.847694 
	C96.108910,7.794977 96.353745,8.227552 96.568420,8.352821 
	C96.783089,8.478089 97.218773,8.718285 97.380844,8.906864 
	C97.712227,9.378210 97.866302,9.669048 98.123154,10.183275 
	C98.241165,10.398590 98.475067,10.832420 98.586212,11.052332 
	C98.842140,11.572248 99.004433,11.862463 99.344055,12.348331 
	C99.617317,12.691321 99.730766,12.828868 100.010712,13.185312 
	C100.276230,13.563777 100.375259,13.723342 100.591873,14.146132 
	C100.768066,14.596323 100.826675,14.783289 100.954132,15.259445 
	C101.149467,16.142490 101.276260,16.736271 101.572083,17.619278 
	C101.742737,18.136337 101.806793,18.348530 101.952339,18.890100 
	C102.222206,20.149807 102.443039,21.072548 102.744026,22.381559 
	C102.795670,23.045279 102.785149,23.318521 102.657593,23.997164 
	C102.051369,25.336660 101.230515,25.986347 100.245834,26.038206 
	C94.105896,26.361567 87.943069,27.178129 81.534561,25.185143 
	C81.275940,23.831800 81.343376,22.788786 81.224930,21.397503 
	C81.039047,21.049236 81.033325,21.017054 81.032288,21.000917 
	C81.905815,19.966497 81.310417,18.701244 81.812706,17.298992 
	C82.022972,17.012894 82.000000,17.000454 82.011536,17.008013 
	C83.032227,16.073736 83.459740,14.864260 83.824242,13.274208 
	C84.023460,13.014298 84.000000,13.000038 84.011902,13.007456 
	C84.684532,12.386992 84.366829,11.216355 85.626450,10.758204 
z"/>
<path fill="#ACEDF4" opacity="1.000000" stroke="none" 
	d="
M77.881912,53.873207 
	C78.260490,53.812893 78.654190,53.865040 78.835373,53.946281 
	C79.352440,54.389767 79.494888,54.816574 79.229721,55.591454 
	C76.674263,60.623901 78.284660,65.540726 78.491020,70.377388 
	C78.575127,72.348755 79.139450,74.298119 78.395844,76.600723 
	C78.166374,76.916176 77.710258,76.929420 77.482544,76.929276 
	C76.015137,70.441223 75.766068,63.879318 75.810287,56.856422 
	C75.544479,55.908997 75.444695,55.367622 75.754669,54.431709 
	C76.485352,54.025738 76.994339,53.979630 77.881912,53.873207 
z"/>
<path fill="#B2F8FF" opacity="1.000000" stroke="none" 
	d="
M103.207138,27.660118 
	C96.019485,28.096653 89.055885,28.137764 81.641327,28.142567 
	C80.721962,27.885370 80.253563,27.664480 79.785156,27.443590 
	C80.091553,27.147272 80.397942,26.850956 80.861313,26.342487 
	C87.633858,24.765079 94.326607,25.884224 101.428528,25.493782 
	C102.181602,25.537331 102.479118,25.597443 103.066246,26.008202 
	C103.380966,26.660797 103.406067,26.962746 103.207138,27.660118 
z"/>
<path fill="#AEF0FB" opacity="1.000000" stroke="none" 
	d="
M75.707916,54.047333 
	C75.960960,54.593132 75.945564,55.114418 75.881271,56.025700 
	C70.546867,56.295803 65.261375,56.175915 59.514801,56.024239 
	C59.046291,55.541279 59.038860,55.090099 59.051361,54.300930 
	C64.043686,53.943192 69.016083,53.923447 74.447273,53.924107 
	C75.083870,53.970612 75.261665,53.996719 75.707916,54.047333 
z"/>
<path fill="#1F8FC2" opacity="1.000000" stroke="none" 
	d="
M103.245758,26.404850 
	C95.920532,26.276125 88.934700,26.228634 81.483582,26.155739 
	C81.016754,25.916517 81.015213,25.702700 81.111084,25.181847 
	C86.828247,24.917562 92.448006,24.958855 98.067719,25.003889 
	C99.916855,25.018707 101.844063,25.174778 102.264191,22.165176 
	C102.617569,21.764206 102.848465,21.781116 103.338982,22.029320 
	C104.059128,23.309490 104.744568,24.294695 104.362152,25.844368 
	C103.994026,26.263937 103.789589,26.375010 103.245758,26.404850 
z"/>
<path fill="#3E97BF" opacity="1.000000" stroke="none" 
	d="
M68.068550,12.733791 
	C68.642792,11.445504 69.734436,10.677337 71.634445,10.826895 
	C72.347656,12.172878 71.705254,13.073554 70.367905,13.926005 
	C69.489838,13.647356 68.941315,13.258797 68.068550,12.733791 
z"/>
<path fill="#9FE4F1" opacity="1.000000" stroke="none" 
	d="
M83.643112,12.974479 
	C84.437271,14.653816 84.030930,16.047123 82.397324,17.099964 
	C81.315918,15.314916 82.274704,14.120339 83.643112,12.974479 
z"/>
<path fill="#9FE4F1" opacity="1.000000" stroke="none" 
	d="
M85.943085,10.511086 
	C85.526978,11.504061 85.090302,12.225348 84.338715,12.980753 
	C82.927666,11.685503 83.978889,10.677621 84.762459,9.297482 
	C85.300323,9.412629 85.611412,9.826014 85.943085,10.511086 
z"/>
<path fill="#9FE4F1" opacity="1.000000" stroke="none" 
	d="
M81.648071,17.147282 
	C83.075157,18.331846 82.234825,19.531620 81.409256,20.870453 
	C79.790184,19.664068 80.773560,18.488670 81.648071,17.147282 
z"/>
<path fill="#ACEDF4" opacity="1.000000" stroke="none" 
	d="
M103.740631,25.970654 
	C103.602821,24.698893 103.350197,23.664484 103.090302,22.309378 
	C103.466766,21.682026 103.901062,21.534267 104.679016,21.787846 
	C105.293159,23.072828 105.622513,24.141502 106.016296,25.539724 
	C106.504951,26.583204 107.300308,26.493677 108.177010,27.014051 
	C108.465347,27.538408 108.521637,27.779123 108.582932,28.393063 
	C107.717369,32.277210 109.762497,35.742970 108.554535,39.593388 
	C107.951775,40.300804 107.474022,40.462677 106.584427,40.222656 
	C105.185905,36.159973 105.923676,31.906326 103.348083,28.171791 
	C102.985817,27.885883 102.988548,27.716221 102.987190,27.292065 
	C103.233856,26.789335 103.449875,26.514189 103.740631,25.970654 
z"/>
<path fill="#99E2F1" opacity="1.000000" stroke="none" 
	d="
M104.959007,21.622345 
	C104.545837,21.999365 104.127869,21.994576 103.396461,21.989235 
	C103.083023,21.988682 102.738983,21.852873 102.562820,21.800083 
	C102.386665,21.747293 102.269669,21.781937 102.247025,21.838585 
	C101.142517,21.274193 101.711174,20.092297 101.236938,18.874393 
	C101.153030,18.512516 101.288597,18.316700 101.232468,18.211674 
	C100.257057,17.410870 100.635681,16.339422 100.233978,15.126694 
	C100.062241,14.809258 100.017662,14.392029 99.928467,14.202129 
	C99.714989,13.823249 99.590706,13.634267 99.265991,13.171535 
	C99.065567,12.897783 99.043930,12.977987 99.083626,12.965760 
	C98.576447,12.590493 98.533737,11.977590 98.212959,11.175795 
	C98.059433,10.925180 98.013580,10.989598 98.052101,10.980698 
	C97.585098,10.589141 97.533539,9.992173 97.172707,9.237782 
	C96.974365,9.027992 96.999695,8.999043 96.982674,9.008310 
	C96.864029,8.839709 96.762405,8.661841 96.833916,8.230113 
	C97.182808,7.961790 97.358582,7.947329 97.797447,7.960811 
	C102.739990,11.167106 103.187744,16.546822 104.959007,21.622345 
z"/>
<path fill="#B2F8FF" opacity="1.000000" stroke="none" 
	d="
M108.392776,28.369604 
	C108.026962,28.051722 108.020920,27.555019 108.022758,27.306656 
	C107.839966,26.914335 107.655342,26.770380 107.796707,26.495831 
	C111.443542,26.308004 114.764397,26.250772 118.539146,26.207701 
	C119.264320,26.685015 119.535591,27.148167 119.873016,27.871964 
	C116.313805,30.362600 112.548683,29.776602 108.392776,28.369604 
z"/>
<path fill="#8CD9EA" opacity="1.000000" stroke="none" 
	d="
M120.841751,23.728537 
	C120.473984,24.578739 120.014374,25.120422 119.321426,25.795601 
	C118.455231,24.507444 117.822357,23.085793 117.074951,21.346588 
	C117.274361,20.788868 117.588310,20.548702 118.045830,20.042194 
	C119.042900,20.990574 119.896393,22.205296 120.841751,23.728537 
z"/>
<path fill="#8CD9EA" opacity="1.000000" stroke="none" 
	d="
M107.794601,26.236305 
	C108.122696,26.365236 108.084335,26.712713 108.054466,26.885502 
	C107.461243,26.847710 106.897881,26.637131 106.207626,26.147911 
	C106.542648,25.948641 107.004578,26.028008 107.794601,26.236305 
z"/>
<path fill="#3E97BF" opacity="1.000000" stroke="none" 
	d="
M73.162384,100.009750 
	C72.517479,100.129356 72.102852,100.056015 71.373543,99.953018 
	C70.470604,99.466415 69.882332,99.009453 69.139130,98.315567 
	C69.298782,97.490738 69.613365,96.902832 70.066696,96.007172 
	C71.365723,96.996109 73.459175,97.570450 73.162384,100.009750 
z"/>
<path fill="#0D93D6" opacity="1.000000" stroke="none" 
	d="
M107.727661,28.310753 
	C111.694855,28.094210 115.362747,28.136700 119.484909,28.155899 
	C120.426216,28.624250 120.913269,29.115892 121.545258,29.820332 
	C122.466522,32.523956 123.242851,35.014782 124.173309,37.796162 
	C124.869431,41.822205 125.377655,45.562996 125.963570,49.291580 
	C126.476456,52.555412 125.583656,54.222233 121.843277,53.952477 
	C117.895988,53.667801 113.912048,53.891277 109.479340,53.944717 
	C108.008972,54.030056 107.501915,53.513081 107.539642,52.538055 
	C107.690590,48.636967 107.214111,44.745140 107.621910,40.433544 
	C108.640106,36.170177 106.220070,32.437954 107.727661,28.310753 
z"/>
<path fill="#2294C9" opacity="1.000000" stroke="none" 
	d="
M126.173599,64.693306 
	C125.141563,67.824738 124.344604,70.656479 123.327812,73.782501 
	C123.107979,74.076767 123.003052,74.002541 122.950821,73.965103 
	C120.583321,71.015083 122.534958,67.914185 122.490608,64.899940 
	C122.451805,62.262947 123.561241,59.271843 118.899269,58.983181 
	C112.288940,58.573879 112.312302,58.296730 111.300095,63.409534 
	C111.001335,64.918633 111.288010,66.885452 108.641266,66.793976 
	C106.977600,63.234581 108.092621,60.004215 108.755859,56.431393 
	C112.676788,56.068779 116.325874,56.362095 119.889511,55.937744 
	C124.955009,55.334557 127.152260,56.977806 126.017975,62.590416 
	C126.403610,63.396809 126.527664,63.862797 126.173599,64.693306 
z"/>
<path fill="#BDF7FD" opacity="1.000000" stroke="none" 
	d="
M109.048920,55.746307 
	C108.923508,59.448669 108.781166,62.801430 108.680794,66.614372 
	C108.922577,67.162163 109.122391,67.249779 109.005280,67.419014 
	C108.036461,68.167328 108.267220,69.722176 107.064789,69.676979 
	C105.674896,69.624741 106.196854,68.251373 105.991341,67.385307 
	C105.153740,63.855625 108.009163,60.411339 106.057472,56.519390 
	C105.572319,55.672577 105.442482,55.127693 105.680573,54.141659 
	C107.992882,49.493237 105.973434,45.150784 106.185402,40.440777 
	C106.601608,40.025871 106.960464,40.024860 107.588387,40.023125 
	C108.029129,44.498020 108.200806,48.973637 108.693512,53.722969 
	C109.020363,54.463356 109.026169,54.930035 109.048920,55.746307 
z"/>
<path fill="#9FE4F1" opacity="1.000000" stroke="none" 
	d="
M126.197113,64.834198 
	C125.913193,64.545212 125.887856,64.097427 125.949142,63.322762 
	C126.035759,62.995869 126.506340,62.997253 126.741211,62.988670 
	C126.802628,63.545197 126.629166,64.110306 126.197113,64.834198 
z"/>
<path fill="#3E97BF" opacity="1.000000" stroke="none" 
	d="
M110.035210,10.131083 
	C111.155655,9.968444 112.459717,9.692561 113.696762,10.946536 
	C114.009735,11.854413 114.002144,12.586894 113.979095,13.685514 
	C112.672897,12.855489 111.382149,11.659326 110.035210,10.131083 
z"/>
<path fill="#3E97BF" opacity="1.000000" stroke="none" 
	d="
M65.616455,13.996866 
	C65.294243,13.989419 65.273254,13.631749 65.281662,13.453137 
	C65.888817,13.074033 66.487564,12.873540 67.399483,12.639011 
	C67.661430,13.756142 66.842186,13.933650 65.616455,13.996866 
z"/>
<path fill="#3E97BF" opacity="1.000000" stroke="none" 
	d="
M113.420914,99.107422 
	C111.320312,98.273392 111.320312,98.273392 114.676697,95.098663 
	C115.268021,95.619080 115.590385,96.312721 116.243111,97.230904 
	C116.371017,97.723846 116.168556,97.992241 115.841179,98.481552 
	C115.062141,98.827522 114.408028,98.952583 113.420914,99.107422 
z"/>
<path fill="#1F8FC2" opacity="1.000000" stroke="none" 
	d="
M89.010834,103.436165 
	C88.798515,102.953300 88.837318,102.774757 88.899765,102.323318 
	C90.985832,102.027817 93.048233,102.005219 95.551132,101.983871 
	C95.991623,101.985115 95.958656,102.478989 95.951965,102.726456 
	C93.857033,104.445900 91.611328,104.545219 89.010834,103.436165 
z"/>
<path fill="#1F8FC2" opacity="1.000000" stroke="none" 
	d="
M99.346123,96.859207 
	C98.858147,95.006973 99.067101,93.046753 100.886597,91.268967 
	C101.413559,93.166283 100.545929,94.911362 99.346123,96.859207 
z"/>
<path fill="#1F8FC2" opacity="1.000000" stroke="none" 
	d="
M98.300476,98.901825 
	C98.216759,98.492767 98.382904,97.912079 98.821808,97.179245 
	C98.913147,97.594803 98.731735,98.162498 98.300476,98.901825 
z"/>
<path fill="#1F8FC2" opacity="1.000000" stroke="none" 
	d="
M97.201385,100.785263 
	C97.152359,100.393845 97.354156,99.848839 97.819946,99.162521 
	C97.873360,99.558037 97.662781,100.094849 97.201385,100.785263 
z"/>
<path fill="#1F8FC2" opacity="1.000000" stroke="none" 
	d="
M96.220406,101.903137 
	C96.060883,101.662262 96.232605,101.393814 96.717834,101.076683 
	C96.773941,101.248146 96.614044,101.530670 96.220406,101.903137 
z"/>
<path fill="#FCFCFC" opacity="1.000000" stroke="none" 
	d="
M53.616508,164.990540 
	C53.189148,164.540176 53.144196,164.103470 53.160248,163.341537 
	C53.517578,162.913452 53.813904,162.810608 54.543411,162.510864 
	C56.924496,162.921143 58.872395,163.528320 60.985596,164.456390 
	C58.845600,167.333481 56.390858,165.179123 53.616508,164.990540 
z"/>
<path fill="#1F8FC2" opacity="1.000000" stroke="none" 
	d="
M96.043640,7.553596 
	C93.992760,6.494976 91.675255,7.510202 89.186241,7.304655 
	C91.318977,4.906591 93.627769,5.316570 96.043640,7.553596 
z"/>
<path fill="#1F8FC2" opacity="1.000000" stroke="none" 
	d="
M96.789680,7.895392 
	C96.994537,8.149574 96.982025,8.322899 96.967583,8.756899 
	C96.708054,8.786107 96.450462,8.554639 96.150887,8.059074 
	C96.108910,7.794977 96.572319,7.814533 96.789680,7.895392 
z"/>
<path fill="#91DCED" opacity="1.000000" stroke="none" 
	d="
M58.763020,56.165611 
	C58.904579,56.380756 58.747147,56.668812 58.369270,57.104340 
	C58.292904,56.935368 58.397972,56.597599 58.763020,56.165611 
z"/>
<path fill="#91DCED" opacity="1.000000" stroke="none" 
	d="
M58.196960,53.006889 
	C58.476353,52.907272 58.705112,53.145584 58.967857,53.673676 
	C58.779377,53.697060 58.494205,53.490845 58.196960,53.006889 
z"/>
<path fill="#91DCED" opacity="1.000000" stroke="none" 
	d="
M58.285660,49.205666 
	C58.634068,49.295231 58.661438,49.584614 58.338142,50.069519 
	C58.058521,49.962677 58.050900,49.676155 58.285660,49.205666 
z"/>
<path fill="#91DCED" opacity="1.000000" stroke="none" 
	d="
M58.143684,59.128998 
	C58.301353,59.141212 58.405544,59.540543 58.368370,60.112743 
	C58.181404,60.029114 58.135803,59.772614 58.143684,59.128998 
z"/>
<path fill="#1F8FC2" opacity="1.000000" stroke="none" 
	d="
M85.089973,95.948364 
	C84.603477,95.587280 84.321411,95.078911 84.030365,94.270706 
	C84.698738,94.404976 85.697922,94.615196 85.089973,95.948364 
z"/>
<path fill="#1F8FC2" opacity="1.000000" stroke="none" 
	d="
M83.906952,92.961990 
	C83.585800,92.736801 83.292801,92.170891 82.988373,91.278564 
	C83.296333,91.508514 83.615723,92.064888 83.906952,92.961990 
z"/>
<path fill="#1F8FC2" opacity="1.000000" stroke="none" 
	d="
M86.843552,99.096237 
	C86.626625,99.119820 86.359215,98.838310 85.992523,98.281357 
	C86.193184,98.267654 86.493126,98.529396 86.843552,99.096237 
z"/>
<path fill="#1F8FC2" opacity="1.000000" stroke="none" 
	d="
M88.876450,101.821548 
	C88.682724,101.880814 88.397346,101.698898 88.027153,101.270332 
	C88.223152,101.209244 88.503975,101.394798 88.876450,101.821548 
z"/>
<path fill="#1F8FC2" opacity="1.000000" stroke="none" 
	d="
M87.894394,100.821182 
	C87.713493,100.852936 87.452484,100.648979 87.130157,100.194778 
	C87.387520,100.076538 87.636002,100.290176 87.894394,100.821182 
z"/>
<path fill="#0193DD" opacity="1.000000" stroke="none" 
	d="
M79.973709,66.944038 
	C80.135544,56.747463 78.658287,58.098053 88.450897,57.982891 
	C92.445877,57.935905 96.451584,58.147663 100.434433,57.922958 
	C103.807213,57.732674 105.421417,58.736206 105.036789,62.369633 
	C104.549164,66.975868 104.356873,71.612686 103.923904,76.225685 
	C103.693291,78.682732 102.477020,80.111191 99.698502,80.043716 
	C94.540604,79.918442 89.377411,79.977829 84.216805,80.014565 
	C82.297371,80.028221 81.070305,79.557579 80.962997,77.285515 
	C80.807213,73.987442 79.526459,70.791862 79.973709,66.944038 
z"/>
<path fill="#0A92D6" opacity="1.000000" stroke="none" 
	d="
M108.790489,67.973732 
	C108.688362,67.500633 108.615623,67.278610 108.669197,67.176582 
	C110.785675,65.623032 110.013779,63.430836 109.927673,61.586262 
	C109.744072,57.652935 111.759811,56.638508 115.160843,57.053387 
	C117.080795,57.287601 118.861595,58.424896 120.951660,57.548805 
	C123.662300,56.412582 123.842598,58.210918 124.063530,60.289234 
	C124.526192,64.641617 122.915138,68.774681 122.928162,73.496078 
	C120.636604,79.639320 116.242905,80.960831 110.626976,80.047142 
	C109.160683,79.808586 108.102615,79.519745 108.029701,77.423370 
	C109.911156,74.319679 108.693695,71.310875 108.790489,67.973732 
z"/>
<path fill="#AEF0FB" opacity="1.000000" stroke="none" 
	d="
M105.398178,53.795956 
	C105.880905,54.285587 105.908562,54.824139 105.916840,55.766800 
	C97.246529,56.107487 88.595589,56.044056 79.480072,55.927803 
	C79.011864,55.464443 79.008232,55.053909 79.010582,54.335449 
	C87.658745,53.966644 96.300934,53.905758 105.398178,53.795956 
z"/>
<path fill="#6CBBD3" opacity="1.000000" stroke="none" 
	d="
M107.835495,76.625778 
	C107.836288,76.849457 107.418045,76.958817 107.203506,76.985214 
	C107.112579,76.592766 107.236206,76.173912 107.359825,75.755066 
	C107.518120,75.970741 107.676407,76.186417 107.835495,76.625778 
z"/>
<path fill="#1F8FC2" opacity="1.000000" stroke="none" 
	d="
M100.036606,15.184385 
	C100.429382,15.666389 100.796532,16.523520 101.170013,17.743649 
	C100.148010,17.550360 99.977188,16.601746 100.036606,15.184385 
z"/>
<path fill="#1F8FC2" opacity="1.000000" stroke="none" 
	d="
M101.113174,18.907261 
	C101.535789,19.396584 101.918549,20.280651 102.262840,21.529976 
	C101.008858,21.400047 101.018135,20.361210 101.113174,18.907261 
z"/>
<path fill="#1F8FC2" opacity="1.000000" stroke="none" 
	d="
M96.995697,9.330569 
	C97.329117,9.478224 97.683861,9.928457 98.064621,10.675244 
	C97.732758,10.525582 97.374893,10.079365 96.995697,9.330569 
z"/>
<path fill="#1F8FC2" opacity="1.000000" stroke="none" 
	d="
M98.056740,11.239553 
	C98.400108,11.399105 98.740784,11.873031 99.102386,12.650246 
	C98.766891,12.487000 98.410469,12.020464 98.056740,11.239553 
z"/>
<path fill="#1F8FC2" opacity="1.000000" stroke="none" 
	d="
M99.120911,13.128204 
	C99.434914,12.953992 99.675011,13.160472 99.812576,13.764727 
	C99.539856,13.873912 99.318855,13.656044 99.120911,13.128204 
z"/>
<path fill="#94DCEC" opacity="1.000000" stroke="none" 
	d="
M103.603180,25.856773 
	C103.719925,26.066969 103.584412,26.400631 103.216003,26.885933 
	C102.983101,27.037573 102.933121,26.681047 102.919739,26.502331 
	C103.054543,26.209158 103.202721,26.094700 103.603180,25.856773 
z"/>
</svg>